G04 EAGLE Gerber RS-274X export*
G75*
%MOMM*%
%FSLAX34Y34*%
%LPD*%
%INTop Copper*%
%IPPOS*%
%AMOC8*
5,1,8,0,0,1.08239X$1,22.5*%
G01*
%ADD10R,1.524000X1.524000*%
%ADD11C,1.981200*%
%ADD12C,1.800000*%
%ADD13R,1.000000X1.500000*%
%ADD14R,1.500000X1.000000*%
%ADD15R,6.000000X6.000000*%
%ADD16P,1.649562X8X292.500000*%
%ADD17R,1.308000X1.308000*%
%ADD18C,1.308000*%
%ADD19C,1.270000*%
%ADD20C,0.152400*%
%ADD21C,0.756400*%


D10*
X353380Y98660D03*
X353380Y48660D03*
X647380Y150660D03*
X647380Y-3340D03*
D11*
X205486Y375666D02*
X185674Y375666D01*
X185674Y325628D02*
X205486Y325628D01*
X205486Y266446D02*
X185674Y266446D01*
X185674Y216408D02*
X205486Y216408D01*
X205486Y157226D02*
X185674Y157226D01*
X185674Y107188D02*
X205486Y107188D01*
X205486Y48006D02*
X185674Y48006D01*
X185674Y-2032D02*
X205486Y-2032D01*
D12*
X636160Y383540D02*
X654160Y383540D01*
X654160Y358140D02*
X636160Y358140D01*
X636160Y332740D02*
X654160Y332740D01*
X654160Y307340D02*
X636160Y307340D01*
X636160Y281940D02*
X654160Y281940D01*
D13*
X445620Y199600D03*
X458320Y199600D03*
X471020Y199600D03*
X483720Y199600D03*
X496420Y199600D03*
X509120Y199600D03*
X521820Y199600D03*
X534520Y199600D03*
D14*
X590020Y349400D03*
D13*
X572620Y384600D03*
X559920Y384600D03*
X547220Y384600D03*
X534520Y384600D03*
X521820Y384600D03*
X509120Y384600D03*
X496420Y384600D03*
D14*
X590020Y260500D03*
D13*
X547220Y199600D03*
X559920Y199600D03*
X572620Y199600D03*
D14*
X590020Y235100D03*
X590020Y247800D03*
D13*
X432920Y199600D03*
X420220Y199600D03*
X407520Y199600D03*
D14*
X590020Y273200D03*
X590020Y285900D03*
X590020Y298600D03*
X590020Y336700D03*
X590020Y324000D03*
X590020Y311300D03*
D13*
X483720Y384600D03*
X471020Y384600D03*
X458320Y384600D03*
X445620Y384600D03*
X432920Y384600D03*
X420220Y384600D03*
X407520Y384600D03*
D15*
X484520Y295100D03*
D16*
X629920Y246380D03*
X655320Y246380D03*
X629920Y220980D03*
X655320Y220980D03*
X629920Y195580D03*
X655320Y195580D03*
D17*
X260080Y277860D03*
D18*
X310880Y277860D03*
X260080Y201660D03*
X260080Y150860D03*
X310880Y227060D03*
X310880Y176260D03*
X310880Y201660D03*
X260080Y227060D03*
X260080Y176260D03*
X310880Y150860D03*
D17*
X260080Y117840D03*
D18*
X310880Y117840D03*
X260080Y41640D03*
X260080Y-9160D03*
X310880Y67040D03*
X310880Y16240D03*
X310880Y41640D03*
X260080Y67040D03*
X260080Y16240D03*
X310880Y-9160D03*
D19*
X215646Y375666D02*
X195580Y375666D01*
X215646Y375666D02*
X229616Y361696D01*
X229616Y278384D01*
X229616Y172720D01*
X229616Y111760D01*
X229616Y48768D01*
X228854Y48006D01*
X195580Y48006D01*
X195580Y266446D02*
X217678Y266446D01*
X229616Y278384D01*
X214122Y157226D02*
X195580Y157226D01*
X214122Y157226D02*
X229616Y172720D01*
X242716Y98660D02*
X353380Y98660D01*
X242716Y98660D02*
X229616Y111760D01*
X260080Y201660D02*
X310880Y201660D01*
D20*
X590020Y183620D02*
X590020Y235100D01*
D21*
X548640Y182880D03*
D20*
X589280Y182880D01*
X590020Y183620D01*
X589280Y182880D02*
X615160Y182880D01*
X647380Y150660D01*
X590020Y235100D02*
X544520Y235100D01*
X484520Y295100D01*
X407520Y372100D02*
X407520Y384600D01*
X407520Y372100D02*
X484298Y295322D01*
X484520Y295100D01*
X407520Y218544D02*
X407520Y199600D01*
X407520Y218544D02*
X484298Y295322D01*
X420220Y199600D02*
X419538Y198918D01*
X419538Y130193D01*
X431875Y117856D01*
X585216Y117856D01*
X585216Y99568D01*
D21*
X585216Y99568D03*
X434848Y221488D03*
D20*
X434848Y201528D01*
X432920Y199600D01*
D21*
X447040Y369824D03*
D20*
X445620Y371244D01*
X445620Y384600D01*
D21*
X459232Y369824D03*
D20*
X458320Y370736D01*
X458320Y384600D01*
X637540Y307340D02*
X645160Y307340D01*
X611632Y333248D02*
X611632Y365760D01*
X592792Y384600D01*
X572620Y384600D01*
X611632Y333248D02*
X637540Y307340D01*
X607568Y247800D02*
X590020Y247800D01*
X607568Y247800D02*
X607568Y195580D01*
X629920Y195580D01*
X592456Y258064D02*
X590020Y260500D01*
X592456Y258064D02*
X615696Y258064D01*
X615696Y233680D01*
X628396Y220980D01*
X629920Y220980D01*
X613260Y273200D02*
X590020Y273200D01*
X613260Y273200D02*
X629920Y256540D01*
X629920Y246380D01*
X361712Y117840D02*
X310880Y117840D01*
X361712Y117840D02*
X449072Y30480D01*
X534416Y30480D01*
X534416Y65024D01*
D21*
X534416Y65024D03*
D20*
X288052Y150860D02*
X260080Y150860D01*
X288052Y150860D02*
X298704Y140208D01*
X355600Y140208D01*
X453136Y42672D01*
X510032Y42672D01*
X510032Y65024D01*
D21*
X510032Y65024D03*
X471424Y182880D03*
D20*
X471424Y199600D01*
X471020Y199600D01*
D21*
X483616Y182880D03*
D20*
X483616Y199600D01*
X483720Y199600D01*
D21*
X495808Y182880D03*
D20*
X495808Y198988D01*
X496420Y199600D01*
D21*
X510032Y182880D03*
D20*
X510032Y198688D01*
X509120Y199600D01*
D21*
X522224Y182880D03*
D20*
X522224Y199196D01*
X521820Y199600D01*
D21*
X534416Y182880D03*
D20*
X534416Y199496D01*
X534520Y199600D01*
X270256Y128016D02*
X260080Y117840D01*
X359664Y128016D02*
X451104Y36576D01*
X522224Y36576D01*
X522224Y65024D01*
D21*
X522224Y65024D03*
D20*
X359664Y128016D02*
X270256Y128016D01*
X329184Y259556D02*
X310880Y277860D01*
X329184Y259556D02*
X329184Y191008D01*
X459232Y60960D01*
X469392Y60960D02*
X473456Y65024D01*
X469392Y60960D02*
X459232Y60960D01*
D21*
X473456Y65024D03*
D20*
X291100Y277860D02*
X260080Y277860D01*
X291100Y277860D02*
X325120Y243840D01*
X325120Y186944D01*
X457200Y54864D01*
X485648Y54864D01*
X485648Y65024D01*
D21*
X485648Y65024D03*
D20*
X353076Y150860D02*
X310880Y150860D01*
X353076Y150860D02*
X455168Y48768D01*
X497840Y48768D01*
X497840Y65024D01*
D21*
X497840Y65024D03*
M02*
