M48
;GenerationSoftware,Autodesk,EAGLE,9.6.2*%
;CreationDate,2021-01-17T13:44:01Z*%
FMAT,2
ICI,OFF
METRIC,TZ,000.000
T5C0.350
T4C0.800
T3C1.016
T2C1.200
T1C1.321
%
G90
M71
T1
X19558Y-203
X19558Y4801
X19558Y10719
X19558Y15723
X19558Y21641
X19558Y26645
X19558Y37567
X19558Y32563
T2
X64516Y35814
X64516Y28194
X64516Y30734
X64516Y33274
X64516Y38354
T3
X65532Y19558
X62992Y19558
X65532Y22098
X62992Y22098
X65532Y24638
X62992Y24638
X35338Y9866
X35338Y4866
X64738Y15066
X64738Y-334
T4
X31088Y-916
X26008Y20166
X26008Y1624
X26008Y6704
X31088Y4164
X31088Y1624
X31088Y6704
X26008Y-916
X26008Y4164
X31088Y11784
X26008Y11784
X31088Y15086
X26008Y17626
X26008Y22706
X31088Y20166
X31088Y17626
X31088Y22706
X26008Y27786
X31088Y27786
X26008Y15086
T5
X48565Y6502
X58522Y9957
X43485Y22149
X44704Y36982
X45923Y36982
X53442Y6502
X51003Y6502
X47142Y18288
X48362Y18288
X49581Y18288
X49784Y6502
X51003Y18288
X52222Y18288
X53442Y18288
X52222Y6502
X47346Y6502
X54864Y18288
M30