G04 EAGLE Gerber RS-274X export*
G75*
%MOMM*%
%FSLAX34Y34*%
%LPD*%
%INSilkscreen Bottom*%
%IPPOS*%
%AMOC8*
5,1,8,0,0,1.08239X$1,22.5*%
G01*
%ADD10C,0.152400*%
%ADD11C,0.101600*%
%ADD12C,0.050800*%


D10*
X542798Y17018D02*
X542798Y762D01*
X535573Y762D01*
X529420Y3471D02*
X529420Y11599D01*
X529419Y3471D02*
X529417Y3370D01*
X529411Y3269D01*
X529402Y3168D01*
X529389Y3067D01*
X529372Y2967D01*
X529351Y2868D01*
X529327Y2770D01*
X529299Y2673D01*
X529267Y2576D01*
X529232Y2481D01*
X529193Y2388D01*
X529151Y2296D01*
X529105Y2205D01*
X529056Y2116D01*
X529004Y2030D01*
X528948Y1945D01*
X528890Y1862D01*
X528828Y1782D01*
X528763Y1704D01*
X528696Y1628D01*
X528626Y1555D01*
X528553Y1485D01*
X528477Y1418D01*
X528399Y1353D01*
X528319Y1291D01*
X528236Y1233D01*
X528151Y1177D01*
X528065Y1125D01*
X527976Y1076D01*
X527885Y1030D01*
X527793Y988D01*
X527700Y949D01*
X527605Y914D01*
X527508Y882D01*
X527411Y854D01*
X527313Y830D01*
X527214Y809D01*
X527114Y792D01*
X527013Y779D01*
X526912Y770D01*
X526811Y764D01*
X526710Y762D01*
X522195Y762D01*
X522195Y11599D01*
X514553Y11599D02*
X514553Y762D01*
X514553Y11599D02*
X506425Y11599D01*
X506324Y11597D01*
X506223Y11591D01*
X506122Y11582D01*
X506021Y11569D01*
X505921Y11552D01*
X505822Y11531D01*
X505724Y11507D01*
X505627Y11479D01*
X505530Y11447D01*
X505435Y11412D01*
X505342Y11373D01*
X505250Y11331D01*
X505159Y11285D01*
X505071Y11236D01*
X504984Y11184D01*
X504899Y11128D01*
X504816Y11070D01*
X504736Y11008D01*
X504658Y10943D01*
X504582Y10876D01*
X504509Y10806D01*
X504439Y10733D01*
X504372Y10657D01*
X504307Y10579D01*
X504245Y10499D01*
X504187Y10416D01*
X504131Y10331D01*
X504079Y10244D01*
X504030Y10156D01*
X503984Y10065D01*
X503942Y9973D01*
X503903Y9880D01*
X503868Y9785D01*
X503836Y9688D01*
X503808Y9591D01*
X503784Y9493D01*
X503763Y9394D01*
X503746Y9294D01*
X503733Y9193D01*
X503724Y9092D01*
X503718Y8991D01*
X503716Y8890D01*
X503715Y8890D02*
X503715Y762D01*
X509134Y762D02*
X509134Y11599D01*
X493885Y762D02*
X489369Y762D01*
X493885Y762D02*
X493986Y764D01*
X494087Y770D01*
X494188Y779D01*
X494289Y792D01*
X494389Y809D01*
X494488Y830D01*
X494586Y854D01*
X494683Y882D01*
X494780Y914D01*
X494875Y949D01*
X494968Y988D01*
X495060Y1030D01*
X495151Y1076D01*
X495240Y1125D01*
X495326Y1177D01*
X495411Y1233D01*
X495494Y1291D01*
X495574Y1353D01*
X495652Y1418D01*
X495728Y1485D01*
X495801Y1555D01*
X495871Y1628D01*
X495938Y1704D01*
X496003Y1782D01*
X496065Y1862D01*
X496123Y1945D01*
X496179Y2030D01*
X496231Y2116D01*
X496280Y2205D01*
X496326Y2296D01*
X496368Y2388D01*
X496407Y2481D01*
X496442Y2576D01*
X496474Y2673D01*
X496502Y2770D01*
X496526Y2868D01*
X496547Y2967D01*
X496564Y3067D01*
X496577Y3168D01*
X496586Y3269D01*
X496592Y3370D01*
X496594Y3471D01*
X496594Y7987D01*
X496592Y8106D01*
X496586Y8226D01*
X496576Y8345D01*
X496562Y8463D01*
X496545Y8582D01*
X496523Y8699D01*
X496498Y8816D01*
X496468Y8931D01*
X496435Y9046D01*
X496398Y9160D01*
X496358Y9272D01*
X496313Y9383D01*
X496265Y9492D01*
X496214Y9600D01*
X496159Y9706D01*
X496100Y9810D01*
X496038Y9912D01*
X495973Y10012D01*
X495904Y10110D01*
X495832Y10206D01*
X495757Y10299D01*
X495680Y10389D01*
X495599Y10477D01*
X495515Y10562D01*
X495428Y10644D01*
X495339Y10724D01*
X495247Y10800D01*
X495153Y10874D01*
X495056Y10944D01*
X494958Y11011D01*
X494857Y11075D01*
X494753Y11135D01*
X494648Y11192D01*
X494541Y11245D01*
X494433Y11295D01*
X494323Y11341D01*
X494211Y11383D01*
X494098Y11422D01*
X493984Y11457D01*
X493869Y11488D01*
X493752Y11516D01*
X493635Y11539D01*
X493518Y11559D01*
X493399Y11575D01*
X493280Y11587D01*
X493161Y11595D01*
X493042Y11599D01*
X492922Y11599D01*
X492803Y11595D01*
X492684Y11587D01*
X492565Y11575D01*
X492446Y11559D01*
X492329Y11539D01*
X492212Y11516D01*
X492095Y11488D01*
X491980Y11457D01*
X491866Y11422D01*
X491753Y11383D01*
X491641Y11341D01*
X491531Y11295D01*
X491423Y11245D01*
X491316Y11192D01*
X491211Y11135D01*
X491107Y11075D01*
X491006Y11011D01*
X490908Y10944D01*
X490811Y10874D01*
X490717Y10800D01*
X490625Y10724D01*
X490536Y10644D01*
X490449Y10562D01*
X490365Y10477D01*
X490284Y10389D01*
X490207Y10299D01*
X490132Y10206D01*
X490060Y10110D01*
X489991Y10012D01*
X489926Y9912D01*
X489864Y9810D01*
X489805Y9706D01*
X489750Y9600D01*
X489699Y9492D01*
X489651Y9383D01*
X489606Y9272D01*
X489566Y9160D01*
X489529Y9046D01*
X489496Y8931D01*
X489466Y8816D01*
X489441Y8699D01*
X489419Y8582D01*
X489402Y8463D01*
X489388Y8345D01*
X489378Y8226D01*
X489372Y8106D01*
X489370Y7987D01*
X489369Y7987D02*
X489369Y6181D01*
X496594Y6181D01*
X482526Y762D02*
X482526Y11599D01*
X478011Y11599D01*
X477907Y11597D01*
X477804Y11591D01*
X477700Y11581D01*
X477597Y11567D01*
X477495Y11549D01*
X477394Y11528D01*
X477293Y11502D01*
X477194Y11473D01*
X477095Y11440D01*
X476998Y11403D01*
X476903Y11362D01*
X476809Y11318D01*
X476717Y11270D01*
X476627Y11219D01*
X476538Y11164D01*
X476452Y11106D01*
X476369Y11044D01*
X476287Y10980D01*
X476209Y10912D01*
X476133Y10842D01*
X476059Y10769D01*
X475989Y10692D01*
X475921Y10614D01*
X475857Y10532D01*
X475795Y10449D01*
X475737Y10363D01*
X475682Y10274D01*
X475631Y10184D01*
X475583Y10092D01*
X475539Y9998D01*
X475498Y9903D01*
X475461Y9806D01*
X475428Y9707D01*
X475399Y9608D01*
X475373Y9507D01*
X475352Y9406D01*
X475334Y9304D01*
X475320Y9201D01*
X475310Y9097D01*
X475304Y8994D01*
X475302Y8890D01*
X475301Y8890D02*
X475301Y762D01*
X459982Y762D02*
X454564Y762D01*
X454446Y764D01*
X454328Y770D01*
X454210Y779D01*
X454093Y793D01*
X453976Y810D01*
X453859Y831D01*
X453744Y856D01*
X453629Y885D01*
X453515Y918D01*
X453403Y954D01*
X453292Y994D01*
X453182Y1037D01*
X453073Y1084D01*
X452966Y1134D01*
X452861Y1189D01*
X452758Y1246D01*
X452657Y1307D01*
X452557Y1371D01*
X452460Y1438D01*
X452365Y1508D01*
X452273Y1582D01*
X452182Y1658D01*
X452095Y1738D01*
X452010Y1820D01*
X451928Y1905D01*
X451848Y1992D01*
X451772Y2083D01*
X451698Y2175D01*
X451628Y2270D01*
X451561Y2367D01*
X451497Y2467D01*
X451436Y2568D01*
X451379Y2671D01*
X451324Y2776D01*
X451274Y2883D01*
X451227Y2992D01*
X451184Y3102D01*
X451144Y3213D01*
X451108Y3325D01*
X451075Y3439D01*
X451046Y3554D01*
X451021Y3669D01*
X451000Y3786D01*
X450983Y3903D01*
X450969Y4020D01*
X450960Y4138D01*
X450954Y4256D01*
X450952Y4374D01*
X450951Y4374D02*
X450951Y6181D01*
X450952Y6181D02*
X450954Y6299D01*
X450960Y6417D01*
X450969Y6535D01*
X450983Y6652D01*
X451000Y6769D01*
X451021Y6886D01*
X451046Y7001D01*
X451075Y7116D01*
X451108Y7230D01*
X451144Y7342D01*
X451184Y7453D01*
X451227Y7563D01*
X451274Y7672D01*
X451324Y7779D01*
X451379Y7884D01*
X451436Y7987D01*
X451497Y8088D01*
X451561Y8188D01*
X451628Y8285D01*
X451698Y8380D01*
X451772Y8472D01*
X451848Y8563D01*
X451928Y8650D01*
X452010Y8735D01*
X452095Y8817D01*
X452182Y8897D01*
X452273Y8973D01*
X452365Y9047D01*
X452460Y9117D01*
X452557Y9184D01*
X452657Y9248D01*
X452758Y9309D01*
X452861Y9366D01*
X452966Y9421D01*
X453073Y9471D01*
X453182Y9518D01*
X453292Y9561D01*
X453403Y9601D01*
X453515Y9637D01*
X453629Y9670D01*
X453744Y9699D01*
X453859Y9724D01*
X453976Y9745D01*
X454093Y9762D01*
X454210Y9776D01*
X454328Y9785D01*
X454446Y9791D01*
X454564Y9793D01*
X459982Y9793D01*
X459982Y17018D01*
X450951Y17018D01*
X444977Y1665D02*
X444977Y762D01*
X444977Y1665D02*
X444073Y1665D01*
X444073Y762D01*
X444977Y762D01*
X438098Y8890D02*
X438094Y9210D01*
X438083Y9529D01*
X438064Y9849D01*
X438037Y10167D01*
X438003Y10485D01*
X437961Y10802D01*
X437911Y11118D01*
X437854Y11433D01*
X437790Y11746D01*
X437718Y12058D01*
X437639Y12368D01*
X437552Y12675D01*
X437458Y12981D01*
X437357Y13284D01*
X437248Y13585D01*
X437133Y13883D01*
X437010Y14179D01*
X436880Y14471D01*
X436743Y14760D01*
X436744Y14761D02*
X436705Y14869D01*
X436662Y14976D01*
X436616Y15081D01*
X436565Y15185D01*
X436512Y15287D01*
X436455Y15387D01*
X436394Y15485D01*
X436330Y15580D01*
X436263Y15674D01*
X436192Y15765D01*
X436119Y15854D01*
X436042Y15940D01*
X435963Y16023D01*
X435881Y16104D01*
X435796Y16182D01*
X435708Y16256D01*
X435618Y16328D01*
X435526Y16396D01*
X435431Y16462D01*
X435334Y16524D01*
X435235Y16582D01*
X435133Y16638D01*
X435031Y16689D01*
X434926Y16737D01*
X434820Y16782D01*
X434712Y16823D01*
X434603Y16860D01*
X434493Y16893D01*
X434381Y16922D01*
X434269Y16948D01*
X434156Y16970D01*
X434042Y16987D01*
X433928Y17001D01*
X433813Y17011D01*
X433698Y17017D01*
X433583Y17019D01*
X433583Y17018D02*
X433468Y17016D01*
X433353Y17010D01*
X433238Y17000D01*
X433124Y16986D01*
X433010Y16969D01*
X432897Y16947D01*
X432785Y16921D01*
X432673Y16892D01*
X432563Y16859D01*
X432454Y16822D01*
X432346Y16781D01*
X432240Y16736D01*
X432136Y16688D01*
X432033Y16637D01*
X431932Y16581D01*
X431832Y16523D01*
X431735Y16461D01*
X431641Y16396D01*
X431548Y16327D01*
X431458Y16255D01*
X431370Y16181D01*
X431285Y16103D01*
X431203Y16022D01*
X431124Y15939D01*
X431047Y15853D01*
X430974Y15764D01*
X430903Y15673D01*
X430836Y15579D01*
X430772Y15484D01*
X430711Y15386D01*
X430654Y15286D01*
X430601Y15184D01*
X430550Y15080D01*
X430504Y14975D01*
X430461Y14868D01*
X430422Y14760D01*
X430423Y14760D02*
X430286Y14471D01*
X430156Y14179D01*
X430033Y13883D01*
X429918Y13585D01*
X429809Y13284D01*
X429708Y12981D01*
X429614Y12675D01*
X429527Y12368D01*
X429448Y12058D01*
X429376Y11746D01*
X429312Y11433D01*
X429255Y11118D01*
X429205Y10802D01*
X429163Y10485D01*
X429129Y10167D01*
X429102Y9849D01*
X429083Y9529D01*
X429072Y9210D01*
X429068Y8890D01*
X438098Y8890D02*
X438094Y8570D01*
X438083Y8251D01*
X438064Y7931D01*
X438037Y7613D01*
X438003Y7295D01*
X437961Y6978D01*
X437911Y6662D01*
X437854Y6347D01*
X437790Y6034D01*
X437718Y5722D01*
X437639Y5412D01*
X437552Y5105D01*
X437458Y4799D01*
X437357Y4496D01*
X437248Y4195D01*
X437133Y3897D01*
X437010Y3601D01*
X436880Y3309D01*
X436743Y3020D01*
X436744Y3020D02*
X436705Y2912D01*
X436662Y2805D01*
X436616Y2700D01*
X436565Y2596D01*
X436512Y2494D01*
X436455Y2394D01*
X436394Y2296D01*
X436330Y2201D01*
X436263Y2107D01*
X436192Y2016D01*
X436119Y1927D01*
X436042Y1841D01*
X435963Y1758D01*
X435881Y1677D01*
X435796Y1599D01*
X435708Y1525D01*
X435618Y1453D01*
X435525Y1384D01*
X435431Y1319D01*
X435334Y1257D01*
X435234Y1199D01*
X435133Y1143D01*
X435031Y1092D01*
X434926Y1044D01*
X434820Y999D01*
X434712Y958D01*
X434603Y921D01*
X434493Y888D01*
X434381Y859D01*
X434269Y833D01*
X434156Y811D01*
X434042Y794D01*
X433928Y780D01*
X433813Y770D01*
X433698Y764D01*
X433583Y762D01*
X430423Y3020D02*
X430286Y3309D01*
X430156Y3601D01*
X430033Y3897D01*
X429918Y4195D01*
X429809Y4496D01*
X429708Y4799D01*
X429614Y5105D01*
X429527Y5412D01*
X429448Y5722D01*
X429376Y6034D01*
X429312Y6347D01*
X429255Y6662D01*
X429205Y6978D01*
X429163Y7295D01*
X429129Y7613D01*
X429102Y7931D01*
X429083Y8251D01*
X429072Y8570D01*
X429068Y8890D01*
X430422Y3020D02*
X430461Y2912D01*
X430504Y2805D01*
X430550Y2700D01*
X430601Y2596D01*
X430654Y2494D01*
X430712Y2394D01*
X430772Y2296D01*
X430836Y2201D01*
X430903Y2107D01*
X430974Y2016D01*
X431047Y1927D01*
X431124Y1841D01*
X431203Y1758D01*
X431285Y1677D01*
X431370Y1599D01*
X431458Y1525D01*
X431548Y1453D01*
X431641Y1384D01*
X431735Y1319D01*
X431832Y1257D01*
X431932Y1199D01*
X432033Y1143D01*
X432136Y1092D01*
X432240Y1044D01*
X432346Y999D01*
X432454Y958D01*
X432563Y921D01*
X432673Y888D01*
X432785Y859D01*
X432897Y833D01*
X433010Y811D01*
X433124Y794D01*
X433238Y780D01*
X433353Y770D01*
X433468Y764D01*
X433583Y762D01*
X437196Y4374D02*
X429971Y13406D01*
D11*
X482092Y69088D02*
X482092Y80772D01*
X482092Y75579D02*
X475601Y75579D01*
X475601Y80772D02*
X475601Y69088D01*
X469877Y69088D02*
X469877Y80772D01*
X469877Y69088D02*
X464685Y69088D01*
X459825Y69088D02*
X459825Y80772D01*
X453334Y80772D02*
X459825Y73632D01*
X457228Y76228D02*
X453334Y69088D01*
X448945Y78176D02*
X445700Y80772D01*
X445700Y69088D01*
X448945Y69088D02*
X442454Y69088D01*
D10*
X597180Y38620D02*
X632180Y38620D01*
X632180Y41520D01*
X632180Y54720D02*
X632180Y64520D01*
X632180Y77720D02*
X632180Y87520D01*
X632180Y100720D02*
X632180Y103620D01*
X597180Y103620D01*
X597180Y89220D01*
X597180Y53020D02*
X597180Y38620D01*
D11*
X629874Y108128D02*
X629874Y119812D01*
X631172Y108128D02*
X628576Y108128D01*
X628576Y119812D02*
X631172Y119812D01*
X621412Y108128D02*
X618816Y108128D01*
X621412Y108128D02*
X621511Y108130D01*
X621611Y108136D01*
X621710Y108145D01*
X621808Y108158D01*
X621906Y108175D01*
X622004Y108196D01*
X622100Y108221D01*
X622195Y108249D01*
X622289Y108281D01*
X622382Y108316D01*
X622474Y108355D01*
X622564Y108398D01*
X622652Y108443D01*
X622739Y108493D01*
X622823Y108545D01*
X622906Y108601D01*
X622986Y108659D01*
X623064Y108721D01*
X623139Y108786D01*
X623212Y108854D01*
X623282Y108924D01*
X623350Y108997D01*
X623415Y109072D01*
X623477Y109150D01*
X623535Y109230D01*
X623591Y109313D01*
X623643Y109397D01*
X623693Y109484D01*
X623738Y109572D01*
X623781Y109662D01*
X623820Y109754D01*
X623855Y109847D01*
X623887Y109941D01*
X623915Y110036D01*
X623940Y110132D01*
X623961Y110230D01*
X623978Y110328D01*
X623991Y110426D01*
X624000Y110525D01*
X624006Y110625D01*
X624008Y110724D01*
X624009Y110724D02*
X624009Y117216D01*
X624008Y117216D02*
X624006Y117315D01*
X624000Y117415D01*
X623991Y117514D01*
X623978Y117612D01*
X623961Y117710D01*
X623940Y117808D01*
X623915Y117904D01*
X623887Y117999D01*
X623855Y118093D01*
X623820Y118186D01*
X623781Y118278D01*
X623738Y118368D01*
X623693Y118456D01*
X623643Y118543D01*
X623591Y118627D01*
X623535Y118710D01*
X623477Y118790D01*
X623415Y118868D01*
X623350Y118943D01*
X623282Y119016D01*
X623212Y119086D01*
X623139Y119154D01*
X623064Y119219D01*
X622986Y119281D01*
X622906Y119339D01*
X622823Y119395D01*
X622739Y119447D01*
X622652Y119497D01*
X622564Y119542D01*
X622474Y119585D01*
X622382Y119624D01*
X622289Y119659D01*
X622195Y119691D01*
X622100Y119719D01*
X622004Y119744D01*
X621906Y119765D01*
X621808Y119782D01*
X621710Y119795D01*
X621611Y119804D01*
X621511Y119810D01*
X621412Y119812D01*
X618816Y119812D01*
X614450Y117216D02*
X611205Y119812D01*
X611205Y108128D01*
X614450Y108128D02*
X607959Y108128D01*
D10*
X549910Y98806D02*
X455930Y98806D01*
X549910Y137922D02*
X550032Y137920D01*
X550154Y137914D01*
X550276Y137904D01*
X550397Y137891D01*
X550518Y137873D01*
X550638Y137852D01*
X550758Y137826D01*
X550876Y137797D01*
X550994Y137765D01*
X551111Y137728D01*
X551226Y137688D01*
X551340Y137644D01*
X551452Y137596D01*
X551563Y137545D01*
X551672Y137490D01*
X551780Y137432D01*
X551885Y137370D01*
X551988Y137305D01*
X552090Y137237D01*
X552189Y137165D01*
X552285Y137091D01*
X552380Y137013D01*
X552471Y136932D01*
X552561Y136849D01*
X552647Y136763D01*
X552730Y136673D01*
X552811Y136582D01*
X552889Y136487D01*
X552963Y136391D01*
X553035Y136292D01*
X553103Y136190D01*
X553168Y136087D01*
X553230Y135982D01*
X553288Y135874D01*
X553343Y135765D01*
X553394Y135654D01*
X553442Y135542D01*
X553486Y135428D01*
X553526Y135313D01*
X553563Y135196D01*
X553595Y135078D01*
X553624Y134960D01*
X553650Y134840D01*
X553671Y134720D01*
X553689Y134599D01*
X553702Y134478D01*
X553712Y134356D01*
X553718Y134234D01*
X553720Y134112D01*
X455930Y98806D02*
X455808Y98808D01*
X455686Y98814D01*
X455564Y98824D01*
X455443Y98837D01*
X455322Y98855D01*
X455202Y98876D01*
X455082Y98902D01*
X454964Y98931D01*
X454846Y98963D01*
X454729Y99000D01*
X454614Y99040D01*
X454500Y99084D01*
X454388Y99132D01*
X454277Y99183D01*
X454168Y99238D01*
X454060Y99296D01*
X453955Y99358D01*
X453852Y99423D01*
X453750Y99491D01*
X453651Y99563D01*
X453555Y99637D01*
X453460Y99715D01*
X453369Y99796D01*
X453279Y99879D01*
X453193Y99965D01*
X453110Y100055D01*
X453029Y100146D01*
X452951Y100241D01*
X452877Y100337D01*
X452805Y100436D01*
X452737Y100538D01*
X452672Y100641D01*
X452610Y100746D01*
X452552Y100854D01*
X452497Y100963D01*
X452446Y101074D01*
X452398Y101186D01*
X452354Y101300D01*
X452314Y101415D01*
X452277Y101532D01*
X452245Y101650D01*
X452216Y101768D01*
X452190Y101888D01*
X452169Y102008D01*
X452151Y102129D01*
X452138Y102250D01*
X452128Y102372D01*
X452122Y102494D01*
X452120Y102616D01*
X549910Y98806D02*
X550032Y98808D01*
X550154Y98814D01*
X550276Y98824D01*
X550397Y98837D01*
X550518Y98855D01*
X550638Y98876D01*
X550758Y98902D01*
X550876Y98931D01*
X550994Y98963D01*
X551111Y99000D01*
X551226Y99040D01*
X551340Y99084D01*
X551452Y99132D01*
X551563Y99183D01*
X551672Y99238D01*
X551780Y99296D01*
X551885Y99358D01*
X551988Y99423D01*
X552090Y99491D01*
X552189Y99563D01*
X552285Y99637D01*
X552380Y99715D01*
X552471Y99796D01*
X552561Y99879D01*
X552647Y99965D01*
X552730Y100055D01*
X552811Y100146D01*
X552889Y100241D01*
X552963Y100337D01*
X553035Y100436D01*
X553103Y100538D01*
X553168Y100641D01*
X553230Y100746D01*
X553288Y100854D01*
X553343Y100963D01*
X553394Y101074D01*
X553442Y101186D01*
X553486Y101300D01*
X553526Y101415D01*
X553563Y101532D01*
X553595Y101650D01*
X553624Y101768D01*
X553650Y101888D01*
X553671Y102008D01*
X553689Y102129D01*
X553702Y102250D01*
X553712Y102372D01*
X553718Y102494D01*
X553720Y102616D01*
X455930Y137922D02*
X455808Y137920D01*
X455686Y137914D01*
X455564Y137904D01*
X455443Y137891D01*
X455322Y137873D01*
X455202Y137852D01*
X455082Y137826D01*
X454964Y137797D01*
X454846Y137765D01*
X454729Y137728D01*
X454614Y137688D01*
X454500Y137644D01*
X454388Y137596D01*
X454277Y137545D01*
X454168Y137490D01*
X454060Y137432D01*
X453955Y137370D01*
X453852Y137305D01*
X453750Y137237D01*
X453651Y137165D01*
X453555Y137091D01*
X453460Y137013D01*
X453369Y136932D01*
X453279Y136849D01*
X453193Y136763D01*
X453110Y136673D01*
X453029Y136582D01*
X452951Y136487D01*
X452877Y136391D01*
X452805Y136292D01*
X452737Y136190D01*
X452672Y136087D01*
X452610Y135982D01*
X452552Y135874D01*
X452497Y135765D01*
X452446Y135654D01*
X452398Y135542D01*
X452354Y135428D01*
X452314Y135313D01*
X452277Y135196D01*
X452245Y135078D01*
X452216Y134960D01*
X452190Y134840D01*
X452169Y134720D01*
X452151Y134599D01*
X452138Y134478D01*
X452128Y134356D01*
X452122Y134234D01*
X452120Y134112D01*
X455930Y137922D02*
X549910Y137922D01*
X553720Y134112D02*
X553720Y102616D01*
X452120Y102616D02*
X452120Y134112D01*
X452120Y123444D02*
X452261Y123442D01*
X452402Y123436D01*
X452543Y123426D01*
X452684Y123413D01*
X452824Y123395D01*
X452963Y123373D01*
X453102Y123348D01*
X453241Y123319D01*
X453378Y123286D01*
X453514Y123249D01*
X453649Y123208D01*
X453784Y123164D01*
X453916Y123116D01*
X454048Y123064D01*
X454178Y123009D01*
X454306Y122950D01*
X454433Y122887D01*
X454557Y122821D01*
X454680Y122752D01*
X454801Y122679D01*
X454920Y122603D01*
X455037Y122523D01*
X455151Y122440D01*
X455264Y122355D01*
X455373Y122266D01*
X455481Y122174D01*
X455585Y122079D01*
X455687Y121981D01*
X455786Y121880D01*
X455883Y121777D01*
X455976Y121671D01*
X456066Y121563D01*
X456154Y121452D01*
X456238Y121339D01*
X456319Y121223D01*
X456397Y121105D01*
X456472Y120985D01*
X456543Y120863D01*
X456611Y120739D01*
X456675Y120613D01*
X456736Y120486D01*
X456793Y120357D01*
X456846Y120226D01*
X456896Y120094D01*
X456943Y119961D01*
X456985Y119826D01*
X457024Y119690D01*
X457059Y119553D01*
X457090Y119416D01*
X457117Y119277D01*
X457141Y119138D01*
X457160Y118998D01*
X457176Y118858D01*
X457188Y118717D01*
X457196Y118576D01*
X457200Y118435D01*
X457200Y118293D01*
X457196Y118152D01*
X457188Y118011D01*
X457176Y117870D01*
X457160Y117730D01*
X457141Y117590D01*
X457117Y117451D01*
X457090Y117312D01*
X457059Y117175D01*
X457024Y117038D01*
X456985Y116902D01*
X456943Y116767D01*
X456896Y116634D01*
X456846Y116502D01*
X456793Y116371D01*
X456736Y116242D01*
X456675Y116115D01*
X456611Y115989D01*
X456543Y115865D01*
X456472Y115743D01*
X456397Y115623D01*
X456319Y115505D01*
X456238Y115389D01*
X456154Y115276D01*
X456066Y115165D01*
X455976Y115057D01*
X455883Y114951D01*
X455786Y114848D01*
X455687Y114747D01*
X455585Y114649D01*
X455481Y114554D01*
X455373Y114462D01*
X455264Y114373D01*
X455151Y114288D01*
X455037Y114205D01*
X454920Y114125D01*
X454801Y114049D01*
X454680Y113976D01*
X454557Y113907D01*
X454433Y113841D01*
X454306Y113778D01*
X454178Y113719D01*
X454048Y113664D01*
X453916Y113612D01*
X453784Y113564D01*
X453649Y113520D01*
X453514Y113479D01*
X453378Y113442D01*
X453241Y113409D01*
X453102Y113380D01*
X452963Y113355D01*
X452824Y113333D01*
X452684Y113315D01*
X452543Y113302D01*
X452402Y113292D01*
X452261Y113286D01*
X452120Y113284D01*
D12*
X452120Y134366D02*
X553720Y134366D01*
D10*
X230378Y336719D02*
X224282Y336719D01*
X224282Y336042D02*
X224282Y337397D01*
X230378Y337397D02*
X230378Y336042D01*
X230378Y340741D02*
X224282Y340741D01*
X224282Y344128D02*
X230378Y340741D01*
X230378Y344128D02*
X224282Y344128D01*
X224282Y348234D02*
X230378Y348234D01*
X230378Y349927D01*
X230376Y350008D01*
X230370Y350088D01*
X230361Y350168D01*
X230347Y350247D01*
X230330Y350326D01*
X230309Y350404D01*
X230285Y350481D01*
X230257Y350556D01*
X230225Y350630D01*
X230190Y350703D01*
X230151Y350774D01*
X230109Y350842D01*
X230064Y350909D01*
X230016Y350974D01*
X229964Y351036D01*
X229910Y351095D01*
X229853Y351152D01*
X229794Y351206D01*
X229732Y351258D01*
X229667Y351306D01*
X229600Y351351D01*
X229532Y351393D01*
X229461Y351432D01*
X229388Y351467D01*
X229314Y351499D01*
X229239Y351527D01*
X229162Y351551D01*
X229084Y351572D01*
X229005Y351589D01*
X228926Y351603D01*
X228846Y351612D01*
X228766Y351618D01*
X228685Y351620D01*
X228604Y351618D01*
X228524Y351612D01*
X228444Y351603D01*
X228365Y351589D01*
X228286Y351572D01*
X228208Y351551D01*
X228131Y351527D01*
X228056Y351499D01*
X227982Y351467D01*
X227909Y351432D01*
X227839Y351393D01*
X227770Y351351D01*
X227703Y351306D01*
X227638Y351258D01*
X227576Y351206D01*
X227517Y351152D01*
X227460Y351095D01*
X227406Y351036D01*
X227354Y350974D01*
X227306Y350909D01*
X227261Y350842D01*
X227219Y350774D01*
X227180Y350703D01*
X227145Y350630D01*
X227113Y350556D01*
X227085Y350481D01*
X227061Y350404D01*
X227040Y350326D01*
X227023Y350247D01*
X227009Y350168D01*
X227000Y350088D01*
X226994Y350008D01*
X226992Y349927D01*
X226991Y349927D02*
X226991Y348234D01*
X225975Y354914D02*
X230378Y354914D01*
X225975Y354914D02*
X225894Y354916D01*
X225814Y354922D01*
X225734Y354931D01*
X225655Y354945D01*
X225576Y354962D01*
X225498Y354983D01*
X225421Y355007D01*
X225346Y355035D01*
X225272Y355067D01*
X225199Y355102D01*
X225129Y355141D01*
X225060Y355183D01*
X224993Y355228D01*
X224928Y355276D01*
X224866Y355328D01*
X224807Y355382D01*
X224750Y355439D01*
X224696Y355498D01*
X224644Y355560D01*
X224596Y355625D01*
X224551Y355692D01*
X224509Y355761D01*
X224470Y355831D01*
X224435Y355904D01*
X224403Y355978D01*
X224375Y356053D01*
X224351Y356130D01*
X224330Y356208D01*
X224313Y356287D01*
X224299Y356366D01*
X224290Y356446D01*
X224284Y356526D01*
X224282Y356607D01*
X224284Y356688D01*
X224290Y356768D01*
X224299Y356848D01*
X224313Y356927D01*
X224330Y357006D01*
X224351Y357084D01*
X224375Y357161D01*
X224403Y357236D01*
X224435Y357310D01*
X224470Y357383D01*
X224509Y357454D01*
X224551Y357522D01*
X224596Y357589D01*
X224644Y357654D01*
X224696Y357716D01*
X224750Y357775D01*
X224807Y357832D01*
X224866Y357886D01*
X224928Y357938D01*
X224993Y357986D01*
X225060Y358031D01*
X225129Y358073D01*
X225199Y358112D01*
X225272Y358147D01*
X225346Y358179D01*
X225421Y358207D01*
X225498Y358231D01*
X225576Y358252D01*
X225655Y358269D01*
X225734Y358283D01*
X225814Y358292D01*
X225894Y358298D01*
X225975Y358300D01*
X225975Y358301D02*
X230378Y358301D01*
X230378Y363237D02*
X224282Y363237D01*
X230378Y361543D02*
X230378Y364930D01*
X231225Y216662D02*
X228515Y216662D01*
X231225Y216662D02*
X231306Y216664D01*
X231386Y216670D01*
X231466Y216679D01*
X231545Y216693D01*
X231624Y216710D01*
X231702Y216731D01*
X231779Y216755D01*
X231854Y216783D01*
X231928Y216815D01*
X232001Y216850D01*
X232072Y216889D01*
X232140Y216931D01*
X232207Y216976D01*
X232272Y217024D01*
X232334Y217076D01*
X232393Y217130D01*
X232450Y217187D01*
X232504Y217246D01*
X232556Y217308D01*
X232604Y217373D01*
X232649Y217440D01*
X232691Y217509D01*
X232730Y217579D01*
X232765Y217652D01*
X232797Y217726D01*
X232825Y217801D01*
X232849Y217878D01*
X232870Y217956D01*
X232887Y218035D01*
X232901Y218114D01*
X232910Y218194D01*
X232916Y218274D01*
X232918Y218355D01*
X232916Y218436D01*
X232910Y218516D01*
X232901Y218596D01*
X232887Y218675D01*
X232870Y218754D01*
X232849Y218832D01*
X232825Y218909D01*
X232797Y218984D01*
X232765Y219058D01*
X232730Y219131D01*
X232691Y219202D01*
X232649Y219270D01*
X232604Y219337D01*
X232556Y219402D01*
X232504Y219464D01*
X232450Y219523D01*
X232393Y219580D01*
X232334Y219634D01*
X232272Y219686D01*
X232207Y219734D01*
X232140Y219779D01*
X232071Y219821D01*
X232001Y219860D01*
X231928Y219895D01*
X231854Y219927D01*
X231779Y219955D01*
X231702Y219979D01*
X231624Y220000D01*
X231545Y220017D01*
X231466Y220031D01*
X231386Y220040D01*
X231306Y220046D01*
X231225Y220048D01*
X231225Y220049D02*
X228515Y220049D01*
X228515Y220048D02*
X228434Y220046D01*
X228354Y220040D01*
X228274Y220031D01*
X228195Y220017D01*
X228116Y220000D01*
X228038Y219979D01*
X227961Y219955D01*
X227886Y219927D01*
X227812Y219895D01*
X227739Y219860D01*
X227669Y219821D01*
X227600Y219779D01*
X227533Y219734D01*
X227468Y219686D01*
X227406Y219634D01*
X227347Y219580D01*
X227290Y219523D01*
X227236Y219464D01*
X227184Y219402D01*
X227136Y219337D01*
X227091Y219270D01*
X227049Y219202D01*
X227010Y219131D01*
X226975Y219058D01*
X226943Y218984D01*
X226915Y218909D01*
X226891Y218832D01*
X226870Y218754D01*
X226853Y218675D01*
X226839Y218596D01*
X226830Y218516D01*
X226824Y218436D01*
X226822Y218355D01*
X226824Y218274D01*
X226830Y218194D01*
X226839Y218114D01*
X226853Y218035D01*
X226870Y217956D01*
X226891Y217878D01*
X226915Y217801D01*
X226943Y217726D01*
X226975Y217652D01*
X227010Y217579D01*
X227049Y217509D01*
X227091Y217440D01*
X227136Y217373D01*
X227184Y217308D01*
X227236Y217246D01*
X227290Y217187D01*
X227347Y217130D01*
X227406Y217076D01*
X227468Y217024D01*
X227533Y216976D01*
X227600Y216931D01*
X227669Y216889D01*
X227739Y216850D01*
X227812Y216815D01*
X227886Y216783D01*
X227961Y216755D01*
X228038Y216731D01*
X228116Y216710D01*
X228195Y216693D01*
X228274Y216679D01*
X228354Y216670D01*
X228434Y216664D01*
X228515Y216662D01*
X228515Y223749D02*
X232918Y223749D01*
X228515Y223749D02*
X228434Y223751D01*
X228354Y223757D01*
X228274Y223766D01*
X228195Y223780D01*
X228116Y223797D01*
X228038Y223818D01*
X227961Y223842D01*
X227886Y223870D01*
X227812Y223902D01*
X227739Y223937D01*
X227669Y223976D01*
X227600Y224018D01*
X227533Y224063D01*
X227468Y224111D01*
X227406Y224163D01*
X227347Y224217D01*
X227290Y224274D01*
X227236Y224333D01*
X227184Y224395D01*
X227136Y224460D01*
X227091Y224527D01*
X227049Y224596D01*
X227010Y224666D01*
X226975Y224739D01*
X226943Y224813D01*
X226915Y224888D01*
X226891Y224965D01*
X226870Y225043D01*
X226853Y225122D01*
X226839Y225201D01*
X226830Y225281D01*
X226824Y225361D01*
X226822Y225442D01*
X226824Y225523D01*
X226830Y225603D01*
X226839Y225683D01*
X226853Y225762D01*
X226870Y225841D01*
X226891Y225919D01*
X226915Y225996D01*
X226943Y226071D01*
X226975Y226145D01*
X227010Y226218D01*
X227049Y226289D01*
X227091Y226357D01*
X227136Y226424D01*
X227184Y226489D01*
X227236Y226551D01*
X227290Y226610D01*
X227347Y226667D01*
X227406Y226721D01*
X227468Y226773D01*
X227533Y226821D01*
X227600Y226866D01*
X227669Y226908D01*
X227739Y226947D01*
X227812Y226982D01*
X227886Y227014D01*
X227961Y227042D01*
X228038Y227066D01*
X228116Y227087D01*
X228195Y227104D01*
X228274Y227118D01*
X228354Y227127D01*
X228434Y227133D01*
X228515Y227135D01*
X232918Y227135D01*
X232918Y232071D02*
X226822Y232071D01*
X232918Y230378D02*
X232918Y233765D01*
X232918Y237185D02*
X226822Y237185D01*
X232918Y237185D02*
X232918Y238878D01*
X232916Y238959D01*
X232910Y239039D01*
X232901Y239119D01*
X232887Y239198D01*
X232870Y239277D01*
X232849Y239355D01*
X232825Y239432D01*
X232797Y239507D01*
X232765Y239581D01*
X232730Y239654D01*
X232691Y239725D01*
X232649Y239793D01*
X232604Y239860D01*
X232556Y239925D01*
X232504Y239987D01*
X232450Y240046D01*
X232393Y240103D01*
X232334Y240157D01*
X232272Y240209D01*
X232207Y240257D01*
X232140Y240302D01*
X232072Y240344D01*
X232001Y240383D01*
X231928Y240418D01*
X231854Y240450D01*
X231779Y240478D01*
X231702Y240502D01*
X231624Y240523D01*
X231545Y240540D01*
X231466Y240554D01*
X231386Y240563D01*
X231306Y240569D01*
X231225Y240571D01*
X231144Y240569D01*
X231064Y240563D01*
X230984Y240554D01*
X230905Y240540D01*
X230826Y240523D01*
X230748Y240502D01*
X230671Y240478D01*
X230596Y240450D01*
X230522Y240418D01*
X230449Y240383D01*
X230379Y240344D01*
X230310Y240302D01*
X230243Y240257D01*
X230178Y240209D01*
X230116Y240157D01*
X230057Y240103D01*
X230000Y240046D01*
X229946Y239987D01*
X229894Y239925D01*
X229846Y239860D01*
X229801Y239793D01*
X229759Y239725D01*
X229720Y239654D01*
X229685Y239581D01*
X229653Y239507D01*
X229625Y239432D01*
X229601Y239355D01*
X229580Y239277D01*
X229563Y239198D01*
X229549Y239119D01*
X229540Y239039D01*
X229534Y238959D01*
X229532Y238878D01*
X229531Y238878D02*
X229531Y237185D01*
X228515Y243865D02*
X232918Y243865D01*
X228515Y243866D02*
X228434Y243868D01*
X228354Y243874D01*
X228274Y243883D01*
X228195Y243897D01*
X228116Y243914D01*
X228038Y243935D01*
X227961Y243959D01*
X227886Y243987D01*
X227812Y244019D01*
X227739Y244054D01*
X227669Y244093D01*
X227600Y244135D01*
X227533Y244180D01*
X227468Y244228D01*
X227406Y244280D01*
X227347Y244334D01*
X227290Y244391D01*
X227236Y244450D01*
X227184Y244512D01*
X227136Y244577D01*
X227091Y244644D01*
X227049Y244713D01*
X227010Y244783D01*
X226975Y244856D01*
X226943Y244930D01*
X226915Y245005D01*
X226891Y245082D01*
X226870Y245160D01*
X226853Y245239D01*
X226839Y245318D01*
X226830Y245398D01*
X226824Y245478D01*
X226822Y245559D01*
X226824Y245640D01*
X226830Y245720D01*
X226839Y245800D01*
X226853Y245879D01*
X226870Y245958D01*
X226891Y246036D01*
X226915Y246113D01*
X226943Y246188D01*
X226975Y246262D01*
X227010Y246335D01*
X227049Y246406D01*
X227091Y246474D01*
X227136Y246541D01*
X227184Y246606D01*
X227236Y246668D01*
X227290Y246727D01*
X227347Y246784D01*
X227406Y246838D01*
X227468Y246890D01*
X227533Y246938D01*
X227600Y246983D01*
X227669Y247025D01*
X227739Y247064D01*
X227812Y247099D01*
X227886Y247131D01*
X227961Y247159D01*
X228038Y247183D01*
X228116Y247204D01*
X228195Y247221D01*
X228274Y247235D01*
X228354Y247244D01*
X228434Y247250D01*
X228515Y247252D01*
X232918Y247252D01*
X232918Y252188D02*
X226822Y252188D01*
X232918Y250495D02*
X232918Y253881D01*
X231563Y256895D02*
X232918Y258589D01*
X226822Y258589D01*
X226822Y260282D02*
X226822Y256895D01*
X225975Y115062D02*
X228685Y115062D01*
X228766Y115064D01*
X228846Y115070D01*
X228926Y115079D01*
X229005Y115093D01*
X229084Y115110D01*
X229162Y115131D01*
X229239Y115155D01*
X229314Y115183D01*
X229388Y115215D01*
X229461Y115250D01*
X229532Y115289D01*
X229600Y115331D01*
X229667Y115376D01*
X229732Y115424D01*
X229794Y115476D01*
X229853Y115530D01*
X229910Y115587D01*
X229964Y115646D01*
X230016Y115708D01*
X230064Y115773D01*
X230109Y115840D01*
X230151Y115909D01*
X230190Y115979D01*
X230225Y116052D01*
X230257Y116126D01*
X230285Y116201D01*
X230309Y116278D01*
X230330Y116356D01*
X230347Y116435D01*
X230361Y116514D01*
X230370Y116594D01*
X230376Y116674D01*
X230378Y116755D01*
X230376Y116836D01*
X230370Y116916D01*
X230361Y116996D01*
X230347Y117075D01*
X230330Y117154D01*
X230309Y117232D01*
X230285Y117309D01*
X230257Y117384D01*
X230225Y117458D01*
X230190Y117531D01*
X230151Y117602D01*
X230109Y117670D01*
X230064Y117737D01*
X230016Y117802D01*
X229964Y117864D01*
X229910Y117923D01*
X229853Y117980D01*
X229794Y118034D01*
X229732Y118086D01*
X229667Y118134D01*
X229600Y118179D01*
X229531Y118221D01*
X229461Y118260D01*
X229388Y118295D01*
X229314Y118327D01*
X229239Y118355D01*
X229162Y118379D01*
X229084Y118400D01*
X229005Y118417D01*
X228926Y118431D01*
X228846Y118440D01*
X228766Y118446D01*
X228685Y118448D01*
X228685Y118449D02*
X225975Y118449D01*
X225975Y118448D02*
X225894Y118446D01*
X225814Y118440D01*
X225734Y118431D01*
X225655Y118417D01*
X225576Y118400D01*
X225498Y118379D01*
X225421Y118355D01*
X225346Y118327D01*
X225272Y118295D01*
X225199Y118260D01*
X225129Y118221D01*
X225060Y118179D01*
X224993Y118134D01*
X224928Y118086D01*
X224866Y118034D01*
X224807Y117980D01*
X224750Y117923D01*
X224696Y117864D01*
X224644Y117802D01*
X224596Y117737D01*
X224551Y117670D01*
X224509Y117602D01*
X224470Y117531D01*
X224435Y117458D01*
X224403Y117384D01*
X224375Y117309D01*
X224351Y117232D01*
X224330Y117154D01*
X224313Y117075D01*
X224299Y116996D01*
X224290Y116916D01*
X224284Y116836D01*
X224282Y116755D01*
X224284Y116674D01*
X224290Y116594D01*
X224299Y116514D01*
X224313Y116435D01*
X224330Y116356D01*
X224351Y116278D01*
X224375Y116201D01*
X224403Y116126D01*
X224435Y116052D01*
X224470Y115979D01*
X224509Y115909D01*
X224551Y115840D01*
X224596Y115773D01*
X224644Y115708D01*
X224696Y115646D01*
X224750Y115587D01*
X224807Y115530D01*
X224866Y115476D01*
X224928Y115424D01*
X224993Y115376D01*
X225060Y115331D01*
X225129Y115289D01*
X225199Y115250D01*
X225272Y115215D01*
X225346Y115183D01*
X225421Y115155D01*
X225498Y115131D01*
X225576Y115110D01*
X225655Y115093D01*
X225734Y115079D01*
X225814Y115070D01*
X225894Y115064D01*
X225975Y115062D01*
X225975Y122149D02*
X230378Y122149D01*
X225975Y122149D02*
X225894Y122151D01*
X225814Y122157D01*
X225734Y122166D01*
X225655Y122180D01*
X225576Y122197D01*
X225498Y122218D01*
X225421Y122242D01*
X225346Y122270D01*
X225272Y122302D01*
X225199Y122337D01*
X225129Y122376D01*
X225060Y122418D01*
X224993Y122463D01*
X224928Y122511D01*
X224866Y122563D01*
X224807Y122617D01*
X224750Y122674D01*
X224696Y122733D01*
X224644Y122795D01*
X224596Y122860D01*
X224551Y122927D01*
X224509Y122996D01*
X224470Y123066D01*
X224435Y123139D01*
X224403Y123213D01*
X224375Y123288D01*
X224351Y123365D01*
X224330Y123443D01*
X224313Y123522D01*
X224299Y123601D01*
X224290Y123681D01*
X224284Y123761D01*
X224282Y123842D01*
X224284Y123923D01*
X224290Y124003D01*
X224299Y124083D01*
X224313Y124162D01*
X224330Y124241D01*
X224351Y124319D01*
X224375Y124396D01*
X224403Y124471D01*
X224435Y124545D01*
X224470Y124618D01*
X224509Y124689D01*
X224551Y124757D01*
X224596Y124824D01*
X224644Y124889D01*
X224696Y124951D01*
X224750Y125010D01*
X224807Y125067D01*
X224866Y125121D01*
X224928Y125173D01*
X224993Y125221D01*
X225060Y125266D01*
X225129Y125308D01*
X225199Y125347D01*
X225272Y125382D01*
X225346Y125414D01*
X225421Y125442D01*
X225498Y125466D01*
X225576Y125487D01*
X225655Y125504D01*
X225734Y125518D01*
X225814Y125527D01*
X225894Y125533D01*
X225975Y125535D01*
X230378Y125535D01*
X230378Y130471D02*
X224282Y130471D01*
X230378Y128778D02*
X230378Y132165D01*
X230378Y135585D02*
X224282Y135585D01*
X230378Y135585D02*
X230378Y137278D01*
X230376Y137359D01*
X230370Y137439D01*
X230361Y137519D01*
X230347Y137598D01*
X230330Y137677D01*
X230309Y137755D01*
X230285Y137832D01*
X230257Y137907D01*
X230225Y137981D01*
X230190Y138054D01*
X230151Y138125D01*
X230109Y138193D01*
X230064Y138260D01*
X230016Y138325D01*
X229964Y138387D01*
X229910Y138446D01*
X229853Y138503D01*
X229794Y138557D01*
X229732Y138609D01*
X229667Y138657D01*
X229600Y138702D01*
X229532Y138744D01*
X229461Y138783D01*
X229388Y138818D01*
X229314Y138850D01*
X229239Y138878D01*
X229162Y138902D01*
X229084Y138923D01*
X229005Y138940D01*
X228926Y138954D01*
X228846Y138963D01*
X228766Y138969D01*
X228685Y138971D01*
X228604Y138969D01*
X228524Y138963D01*
X228444Y138954D01*
X228365Y138940D01*
X228286Y138923D01*
X228208Y138902D01*
X228131Y138878D01*
X228056Y138850D01*
X227982Y138818D01*
X227909Y138783D01*
X227839Y138744D01*
X227770Y138702D01*
X227703Y138657D01*
X227638Y138609D01*
X227576Y138557D01*
X227517Y138503D01*
X227460Y138446D01*
X227406Y138387D01*
X227354Y138325D01*
X227306Y138260D01*
X227261Y138193D01*
X227219Y138125D01*
X227180Y138054D01*
X227145Y137981D01*
X227113Y137907D01*
X227085Y137832D01*
X227061Y137755D01*
X227040Y137677D01*
X227023Y137598D01*
X227009Y137519D01*
X227000Y137439D01*
X226994Y137359D01*
X226992Y137278D01*
X226991Y137278D02*
X226991Y135585D01*
X225975Y142265D02*
X230378Y142265D01*
X225975Y142266D02*
X225894Y142268D01*
X225814Y142274D01*
X225734Y142283D01*
X225655Y142297D01*
X225576Y142314D01*
X225498Y142335D01*
X225421Y142359D01*
X225346Y142387D01*
X225272Y142419D01*
X225199Y142454D01*
X225129Y142493D01*
X225060Y142535D01*
X224993Y142580D01*
X224928Y142628D01*
X224866Y142680D01*
X224807Y142734D01*
X224750Y142791D01*
X224696Y142850D01*
X224644Y142912D01*
X224596Y142977D01*
X224551Y143044D01*
X224509Y143113D01*
X224470Y143183D01*
X224435Y143256D01*
X224403Y143330D01*
X224375Y143405D01*
X224351Y143482D01*
X224330Y143560D01*
X224313Y143639D01*
X224299Y143718D01*
X224290Y143798D01*
X224284Y143878D01*
X224282Y143959D01*
X224284Y144040D01*
X224290Y144120D01*
X224299Y144200D01*
X224313Y144279D01*
X224330Y144358D01*
X224351Y144436D01*
X224375Y144513D01*
X224403Y144588D01*
X224435Y144662D01*
X224470Y144735D01*
X224509Y144806D01*
X224551Y144874D01*
X224596Y144941D01*
X224644Y145006D01*
X224696Y145068D01*
X224750Y145127D01*
X224807Y145184D01*
X224866Y145238D01*
X224928Y145290D01*
X224993Y145338D01*
X225060Y145383D01*
X225129Y145425D01*
X225199Y145464D01*
X225272Y145499D01*
X225346Y145531D01*
X225421Y145559D01*
X225498Y145583D01*
X225576Y145604D01*
X225655Y145621D01*
X225734Y145635D01*
X225814Y145644D01*
X225894Y145650D01*
X225975Y145652D01*
X230378Y145652D01*
X230378Y150588D02*
X224282Y150588D01*
X230378Y148895D02*
X230378Y152281D01*
X230378Y157158D02*
X230376Y157235D01*
X230370Y157312D01*
X230360Y157389D01*
X230347Y157465D01*
X230329Y157540D01*
X230308Y157614D01*
X230283Y157687D01*
X230254Y157759D01*
X230222Y157829D01*
X230187Y157898D01*
X230147Y157964D01*
X230105Y158029D01*
X230059Y158091D01*
X230010Y158151D01*
X229959Y158208D01*
X229904Y158263D01*
X229847Y158314D01*
X229787Y158363D01*
X229725Y158409D01*
X229660Y158451D01*
X229594Y158491D01*
X229525Y158526D01*
X229455Y158558D01*
X229383Y158587D01*
X229310Y158612D01*
X229236Y158633D01*
X229161Y158651D01*
X229085Y158664D01*
X229008Y158674D01*
X228931Y158680D01*
X228854Y158682D01*
X230378Y157158D02*
X230376Y157073D01*
X230371Y156988D01*
X230361Y156904D01*
X230349Y156820D01*
X230332Y156737D01*
X230312Y156654D01*
X230288Y156573D01*
X230261Y156492D01*
X230231Y156413D01*
X230197Y156335D01*
X230159Y156259D01*
X230119Y156184D01*
X230075Y156112D01*
X230028Y156041D01*
X229978Y155972D01*
X229925Y155906D01*
X229870Y155842D01*
X229811Y155780D01*
X229750Y155721D01*
X229687Y155665D01*
X229621Y155611D01*
X229552Y155561D01*
X229482Y155513D01*
X229410Y155469D01*
X229336Y155427D01*
X229260Y155389D01*
X229182Y155355D01*
X229103Y155323D01*
X229023Y155295D01*
X227669Y158174D02*
X227724Y158229D01*
X227781Y158282D01*
X227841Y158331D01*
X227904Y158378D01*
X227968Y158422D01*
X228035Y158462D01*
X228103Y158500D01*
X228174Y158534D01*
X228245Y158565D01*
X228318Y158592D01*
X228392Y158616D01*
X228468Y158636D01*
X228544Y158652D01*
X228621Y158665D01*
X228698Y158675D01*
X228776Y158680D01*
X228854Y158682D01*
X227669Y158174D02*
X224282Y155295D01*
X224282Y158682D01*
X228515Y3302D02*
X231225Y3302D01*
X231306Y3304D01*
X231386Y3310D01*
X231466Y3319D01*
X231545Y3333D01*
X231624Y3350D01*
X231702Y3371D01*
X231779Y3395D01*
X231854Y3423D01*
X231928Y3455D01*
X232001Y3490D01*
X232072Y3529D01*
X232140Y3571D01*
X232207Y3616D01*
X232272Y3664D01*
X232334Y3716D01*
X232393Y3770D01*
X232450Y3827D01*
X232504Y3886D01*
X232556Y3948D01*
X232604Y4013D01*
X232649Y4080D01*
X232691Y4149D01*
X232730Y4219D01*
X232765Y4292D01*
X232797Y4366D01*
X232825Y4441D01*
X232849Y4518D01*
X232870Y4596D01*
X232887Y4675D01*
X232901Y4754D01*
X232910Y4834D01*
X232916Y4914D01*
X232918Y4995D01*
X232916Y5076D01*
X232910Y5156D01*
X232901Y5236D01*
X232887Y5315D01*
X232870Y5394D01*
X232849Y5472D01*
X232825Y5549D01*
X232797Y5624D01*
X232765Y5698D01*
X232730Y5771D01*
X232691Y5842D01*
X232649Y5910D01*
X232604Y5977D01*
X232556Y6042D01*
X232504Y6104D01*
X232450Y6163D01*
X232393Y6220D01*
X232334Y6274D01*
X232272Y6326D01*
X232207Y6374D01*
X232140Y6419D01*
X232071Y6461D01*
X232001Y6500D01*
X231928Y6535D01*
X231854Y6567D01*
X231779Y6595D01*
X231702Y6619D01*
X231624Y6640D01*
X231545Y6657D01*
X231466Y6671D01*
X231386Y6680D01*
X231306Y6686D01*
X231225Y6688D01*
X231225Y6689D02*
X228515Y6689D01*
X228515Y6688D02*
X228434Y6686D01*
X228354Y6680D01*
X228274Y6671D01*
X228195Y6657D01*
X228116Y6640D01*
X228038Y6619D01*
X227961Y6595D01*
X227886Y6567D01*
X227812Y6535D01*
X227739Y6500D01*
X227669Y6461D01*
X227600Y6419D01*
X227533Y6374D01*
X227468Y6326D01*
X227406Y6274D01*
X227347Y6220D01*
X227290Y6163D01*
X227236Y6104D01*
X227184Y6042D01*
X227136Y5977D01*
X227091Y5910D01*
X227049Y5842D01*
X227010Y5771D01*
X226975Y5698D01*
X226943Y5624D01*
X226915Y5549D01*
X226891Y5472D01*
X226870Y5394D01*
X226853Y5315D01*
X226839Y5236D01*
X226830Y5156D01*
X226824Y5076D01*
X226822Y4995D01*
X226824Y4914D01*
X226830Y4834D01*
X226839Y4754D01*
X226853Y4675D01*
X226870Y4596D01*
X226891Y4518D01*
X226915Y4441D01*
X226943Y4366D01*
X226975Y4292D01*
X227010Y4219D01*
X227049Y4149D01*
X227091Y4080D01*
X227136Y4013D01*
X227184Y3948D01*
X227236Y3886D01*
X227290Y3827D01*
X227347Y3770D01*
X227406Y3716D01*
X227468Y3664D01*
X227533Y3616D01*
X227600Y3571D01*
X227669Y3529D01*
X227739Y3490D01*
X227812Y3455D01*
X227886Y3423D01*
X227961Y3395D01*
X228038Y3371D01*
X228116Y3350D01*
X228195Y3333D01*
X228274Y3319D01*
X228354Y3310D01*
X228434Y3304D01*
X228515Y3302D01*
X228515Y10389D02*
X232918Y10389D01*
X228515Y10389D02*
X228434Y10391D01*
X228354Y10397D01*
X228274Y10406D01*
X228195Y10420D01*
X228116Y10437D01*
X228038Y10458D01*
X227961Y10482D01*
X227886Y10510D01*
X227812Y10542D01*
X227739Y10577D01*
X227669Y10616D01*
X227600Y10658D01*
X227533Y10703D01*
X227468Y10751D01*
X227406Y10803D01*
X227347Y10857D01*
X227290Y10914D01*
X227236Y10973D01*
X227184Y11035D01*
X227136Y11100D01*
X227091Y11167D01*
X227049Y11236D01*
X227010Y11306D01*
X226975Y11379D01*
X226943Y11453D01*
X226915Y11528D01*
X226891Y11605D01*
X226870Y11683D01*
X226853Y11762D01*
X226839Y11841D01*
X226830Y11921D01*
X226824Y12001D01*
X226822Y12082D01*
X226824Y12163D01*
X226830Y12243D01*
X226839Y12323D01*
X226853Y12402D01*
X226870Y12481D01*
X226891Y12559D01*
X226915Y12636D01*
X226943Y12711D01*
X226975Y12785D01*
X227010Y12858D01*
X227049Y12929D01*
X227091Y12997D01*
X227136Y13064D01*
X227184Y13129D01*
X227236Y13191D01*
X227290Y13250D01*
X227347Y13307D01*
X227406Y13361D01*
X227468Y13413D01*
X227533Y13461D01*
X227600Y13506D01*
X227669Y13548D01*
X227739Y13587D01*
X227812Y13622D01*
X227886Y13654D01*
X227961Y13682D01*
X228038Y13706D01*
X228116Y13727D01*
X228195Y13744D01*
X228274Y13758D01*
X228354Y13767D01*
X228434Y13773D01*
X228515Y13775D01*
X232918Y13775D01*
X232918Y18711D02*
X226822Y18711D01*
X232918Y17018D02*
X232918Y20405D01*
X232918Y23825D02*
X226822Y23825D01*
X232918Y23825D02*
X232918Y25518D01*
X232916Y25599D01*
X232910Y25679D01*
X232901Y25759D01*
X232887Y25838D01*
X232870Y25917D01*
X232849Y25995D01*
X232825Y26072D01*
X232797Y26147D01*
X232765Y26221D01*
X232730Y26294D01*
X232691Y26365D01*
X232649Y26433D01*
X232604Y26500D01*
X232556Y26565D01*
X232504Y26627D01*
X232450Y26686D01*
X232393Y26743D01*
X232334Y26797D01*
X232272Y26849D01*
X232207Y26897D01*
X232140Y26942D01*
X232072Y26984D01*
X232001Y27023D01*
X231928Y27058D01*
X231854Y27090D01*
X231779Y27118D01*
X231702Y27142D01*
X231624Y27163D01*
X231545Y27180D01*
X231466Y27194D01*
X231386Y27203D01*
X231306Y27209D01*
X231225Y27211D01*
X231144Y27209D01*
X231064Y27203D01*
X230984Y27194D01*
X230905Y27180D01*
X230826Y27163D01*
X230748Y27142D01*
X230671Y27118D01*
X230596Y27090D01*
X230522Y27058D01*
X230449Y27023D01*
X230379Y26984D01*
X230310Y26942D01*
X230243Y26897D01*
X230178Y26849D01*
X230116Y26797D01*
X230057Y26743D01*
X230000Y26686D01*
X229946Y26627D01*
X229894Y26565D01*
X229846Y26500D01*
X229801Y26433D01*
X229759Y26365D01*
X229720Y26294D01*
X229685Y26221D01*
X229653Y26147D01*
X229625Y26072D01*
X229601Y25995D01*
X229580Y25917D01*
X229563Y25838D01*
X229549Y25759D01*
X229540Y25679D01*
X229534Y25599D01*
X229532Y25518D01*
X229531Y25518D02*
X229531Y23825D01*
X228515Y30505D02*
X232918Y30505D01*
X228515Y30506D02*
X228434Y30508D01*
X228354Y30514D01*
X228274Y30523D01*
X228195Y30537D01*
X228116Y30554D01*
X228038Y30575D01*
X227961Y30599D01*
X227886Y30627D01*
X227812Y30659D01*
X227739Y30694D01*
X227669Y30733D01*
X227600Y30775D01*
X227533Y30820D01*
X227468Y30868D01*
X227406Y30920D01*
X227347Y30974D01*
X227290Y31031D01*
X227236Y31090D01*
X227184Y31152D01*
X227136Y31217D01*
X227091Y31284D01*
X227049Y31353D01*
X227010Y31423D01*
X226975Y31496D01*
X226943Y31570D01*
X226915Y31645D01*
X226891Y31722D01*
X226870Y31800D01*
X226853Y31879D01*
X226839Y31958D01*
X226830Y32038D01*
X226824Y32118D01*
X226822Y32199D01*
X226824Y32280D01*
X226830Y32360D01*
X226839Y32440D01*
X226853Y32519D01*
X226870Y32598D01*
X226891Y32676D01*
X226915Y32753D01*
X226943Y32828D01*
X226975Y32902D01*
X227010Y32975D01*
X227049Y33046D01*
X227091Y33114D01*
X227136Y33181D01*
X227184Y33246D01*
X227236Y33308D01*
X227290Y33367D01*
X227347Y33424D01*
X227406Y33478D01*
X227468Y33530D01*
X227533Y33578D01*
X227600Y33623D01*
X227669Y33665D01*
X227739Y33704D01*
X227812Y33739D01*
X227886Y33771D01*
X227961Y33799D01*
X228038Y33823D01*
X228116Y33844D01*
X228195Y33861D01*
X228274Y33875D01*
X228354Y33884D01*
X228434Y33890D01*
X228515Y33892D01*
X232918Y33892D01*
X232918Y38828D02*
X226822Y38828D01*
X232918Y37135D02*
X232918Y40521D01*
X226822Y43535D02*
X226822Y45229D01*
X226824Y45310D01*
X226830Y45390D01*
X226839Y45470D01*
X226853Y45549D01*
X226870Y45628D01*
X226891Y45706D01*
X226915Y45783D01*
X226943Y45858D01*
X226975Y45932D01*
X227010Y46005D01*
X227049Y46076D01*
X227091Y46144D01*
X227136Y46211D01*
X227184Y46276D01*
X227236Y46338D01*
X227290Y46397D01*
X227347Y46454D01*
X227406Y46508D01*
X227468Y46560D01*
X227533Y46608D01*
X227600Y46653D01*
X227669Y46695D01*
X227739Y46734D01*
X227812Y46769D01*
X227886Y46801D01*
X227961Y46829D01*
X228038Y46853D01*
X228116Y46874D01*
X228195Y46891D01*
X228274Y46905D01*
X228354Y46914D01*
X228434Y46920D01*
X228515Y46922D01*
X228596Y46920D01*
X228676Y46914D01*
X228756Y46905D01*
X228835Y46891D01*
X228914Y46874D01*
X228992Y46853D01*
X229069Y46829D01*
X229144Y46801D01*
X229218Y46769D01*
X229291Y46734D01*
X229362Y46695D01*
X229430Y46653D01*
X229497Y46608D01*
X229562Y46560D01*
X229624Y46508D01*
X229683Y46454D01*
X229740Y46397D01*
X229794Y46338D01*
X229846Y46276D01*
X229894Y46211D01*
X229939Y46144D01*
X229981Y46076D01*
X230020Y46005D01*
X230055Y45932D01*
X230087Y45858D01*
X230115Y45783D01*
X230139Y45706D01*
X230160Y45628D01*
X230177Y45549D01*
X230191Y45470D01*
X230200Y45390D01*
X230206Y45310D01*
X230208Y45229D01*
X232918Y45567D02*
X232918Y43535D01*
X232918Y45567D02*
X232916Y45639D01*
X232910Y45711D01*
X232901Y45783D01*
X232887Y45853D01*
X232870Y45924D01*
X232849Y45993D01*
X232825Y46060D01*
X232797Y46127D01*
X232765Y46192D01*
X232730Y46255D01*
X232692Y46316D01*
X232651Y46375D01*
X232606Y46432D01*
X232559Y46486D01*
X232508Y46538D01*
X232455Y46587D01*
X232400Y46633D01*
X232342Y46676D01*
X232282Y46716D01*
X232220Y46752D01*
X232156Y46786D01*
X232090Y46815D01*
X232023Y46842D01*
X231954Y46864D01*
X231885Y46883D01*
X231814Y46899D01*
X231743Y46910D01*
X231671Y46918D01*
X231599Y46922D01*
X231527Y46922D01*
X231455Y46918D01*
X231383Y46910D01*
X231312Y46899D01*
X231241Y46883D01*
X231172Y46864D01*
X231103Y46842D01*
X231036Y46815D01*
X230970Y46786D01*
X230906Y46752D01*
X230844Y46716D01*
X230784Y46676D01*
X230726Y46633D01*
X230671Y46587D01*
X230618Y46538D01*
X230567Y46486D01*
X230520Y46432D01*
X230475Y46375D01*
X230434Y46316D01*
X230396Y46255D01*
X230361Y46192D01*
X230329Y46127D01*
X230301Y46060D01*
X230277Y45993D01*
X230256Y45924D01*
X230239Y45853D01*
X230225Y45783D01*
X230216Y45711D01*
X230210Y45639D01*
X230208Y45567D01*
X230209Y45567D02*
X230209Y44213D01*
M02*
