G04 EAGLE Gerber RS-274X export*
G75*
%MOMM*%
%FSLAX34Y34*%
%LPD*%
%INSoldermask Top*%
%IPPOS*%
%AMOC8*
5,1,8,0,0,1.08239X$1,22.5*%
G01*
%ADD10R,1.727200X1.727200*%
%ADD11C,2.184400*%
%ADD12C,2.003200*%
%ADD13R,1.203200X1.703200*%
%ADD14R,1.703200X1.203200*%
%ADD15R,6.203200X6.203200*%
%ADD16P,1.869504X8X292.500000*%
%ADD17R,1.511200X1.511200*%
%ADD18C,1.511200*%
%ADD19C,0.959600*%


D10*
X353380Y98660D03*
X353380Y48660D03*
X647380Y150660D03*
X647380Y-3340D03*
D11*
X205486Y375666D02*
X185674Y375666D01*
X185674Y325628D02*
X205486Y325628D01*
X205486Y266446D02*
X185674Y266446D01*
X185674Y216408D02*
X205486Y216408D01*
X205486Y157226D02*
X185674Y157226D01*
X185674Y107188D02*
X205486Y107188D01*
X205486Y48006D02*
X185674Y48006D01*
X185674Y-2032D02*
X205486Y-2032D01*
D12*
X636160Y383540D02*
X654160Y383540D01*
X654160Y358140D02*
X636160Y358140D01*
X636160Y332740D02*
X654160Y332740D01*
X654160Y307340D02*
X636160Y307340D01*
X636160Y281940D02*
X654160Y281940D01*
D13*
X445620Y199600D03*
X458320Y199600D03*
X471020Y199600D03*
X483720Y199600D03*
X496420Y199600D03*
X509120Y199600D03*
X521820Y199600D03*
X534520Y199600D03*
D14*
X590020Y349400D03*
D13*
X572620Y384600D03*
X559920Y384600D03*
X547220Y384600D03*
X534520Y384600D03*
X521820Y384600D03*
X509120Y384600D03*
X496420Y384600D03*
D14*
X590020Y260500D03*
D13*
X547220Y199600D03*
X559920Y199600D03*
X572620Y199600D03*
D14*
X590020Y235100D03*
X590020Y247800D03*
D13*
X432920Y199600D03*
X420220Y199600D03*
X407520Y199600D03*
D14*
X590020Y273200D03*
X590020Y285900D03*
X590020Y298600D03*
X590020Y336700D03*
X590020Y324000D03*
X590020Y311300D03*
D13*
X483720Y384600D03*
X471020Y384600D03*
X458320Y384600D03*
X445620Y384600D03*
X432920Y384600D03*
X420220Y384600D03*
X407520Y384600D03*
D15*
X484520Y295100D03*
D16*
X629920Y246380D03*
X655320Y246380D03*
X629920Y220980D03*
X655320Y220980D03*
X629920Y195580D03*
X655320Y195580D03*
D17*
X260080Y277860D03*
D18*
X310880Y277860D03*
X260080Y201660D03*
X260080Y150860D03*
X310880Y227060D03*
X310880Y176260D03*
X310880Y201660D03*
X260080Y227060D03*
X260080Y176260D03*
X310880Y150860D03*
D17*
X260080Y117840D03*
D18*
X310880Y117840D03*
X260080Y41640D03*
X260080Y-9160D03*
X310880Y67040D03*
X310880Y16240D03*
X310880Y41640D03*
X260080Y67040D03*
X260080Y16240D03*
X310880Y-9160D03*
D19*
X548640Y182880D03*
X585216Y99568D03*
X434848Y221488D03*
X447040Y369824D03*
X459232Y369824D03*
X534416Y65024D03*
X510032Y65024D03*
X471424Y182880D03*
X483616Y182880D03*
X495808Y182880D03*
X510032Y182880D03*
X522224Y182880D03*
X534416Y182880D03*
X522224Y65024D03*
X473456Y65024D03*
X485648Y65024D03*
X497840Y65024D03*
M02*
