M48
;GenerationSoftware,Autodesk,EAGLE,9.6.2*%
;CreationDate,2020-11-05T23:31:04Z*%
FMAT,2
ICI,OFF
METRIC,TZ,000.000
T5C0.350
T4C1.000
T3C1.016
T2C1.200
T1C1.321
%
G90
M71
T1
X19558Y51
X19558Y5055
X19558Y10973
X19558Y15977
X19558Y21895
X19558Y26899
X22911Y34798
X27915Y34798
T2
X68072Y4572
X70612Y4572
X73152Y4572
X75692Y4572
X78232Y4572
T3
X48474Y28924
X43474Y28924
X53674Y-476
X38274Y-476
X59182Y3810
X61722Y1270
X61722Y3810
X64262Y1270
X64262Y3810
X59182Y1270
T4
X28010Y2032
X33274Y36646
X40894Y36646
X51054Y36646
X53594Y36646
X28010Y19812
X28010Y12192
X28010Y-508
X34360Y19812
X34360Y12192
X34360Y2032
X34360Y-508
T5
X56896Y15494
X42164Y16510
X30226Y4826
X61214Y26924
X52070Y6604
X46482Y10668
X60833Y11557
X58166Y15494
X76200Y25654
X76200Y24130
X61214Y18034
X72644Y13208
X66802Y7620
M30