G04 EAGLE Gerber RS-274X export*
G75*
%MOMM*%
%FSLAX34Y34*%
%LPD*%
%INSilkscreen Bottom*%
%IPPOS*%
%AMOC8*
5,1,8,0,0,1.08239X$1,22.5*%
G01*
%ADD10C,0.101600*%
%ADD11C,0.152400*%
%ADD12C,0.050800*%


D10*
X455168Y160528D02*
X466852Y160528D01*
X461659Y160528D02*
X461659Y167019D01*
X466852Y167019D02*
X455168Y167019D01*
X455168Y172743D02*
X466852Y172743D01*
X455168Y172743D02*
X455168Y177935D01*
X455168Y182795D02*
X466852Y182795D01*
X466852Y189286D02*
X459712Y182795D01*
X462308Y185392D02*
X455168Y189286D01*
X464256Y193675D02*
X466852Y196920D01*
X455168Y196920D01*
X455168Y193675D02*
X455168Y200166D01*
D11*
X427240Y53060D02*
X427240Y18060D01*
X430140Y18060D01*
X443340Y18060D02*
X453140Y18060D01*
X466340Y18060D02*
X476140Y18060D01*
X489340Y18060D02*
X492240Y18060D01*
X492240Y53060D01*
X477840Y53060D01*
X441640Y53060D02*
X427240Y53060D01*
D10*
X496748Y20366D02*
X508432Y20366D01*
X496748Y19068D02*
X496748Y21664D01*
X508432Y21664D02*
X508432Y19068D01*
X496748Y28828D02*
X496748Y31424D01*
X496748Y28828D02*
X496750Y28729D01*
X496756Y28629D01*
X496765Y28530D01*
X496778Y28432D01*
X496795Y28334D01*
X496816Y28236D01*
X496841Y28140D01*
X496869Y28045D01*
X496901Y27951D01*
X496936Y27858D01*
X496975Y27766D01*
X497018Y27676D01*
X497063Y27588D01*
X497113Y27501D01*
X497165Y27417D01*
X497221Y27334D01*
X497279Y27254D01*
X497341Y27176D01*
X497406Y27101D01*
X497474Y27028D01*
X497544Y26958D01*
X497617Y26890D01*
X497692Y26825D01*
X497770Y26763D01*
X497850Y26705D01*
X497933Y26649D01*
X498017Y26597D01*
X498104Y26547D01*
X498192Y26502D01*
X498282Y26459D01*
X498374Y26420D01*
X498467Y26385D01*
X498561Y26353D01*
X498656Y26325D01*
X498752Y26300D01*
X498850Y26279D01*
X498948Y26262D01*
X499046Y26249D01*
X499145Y26240D01*
X499245Y26234D01*
X499344Y26232D01*
X499344Y26231D02*
X505836Y26231D01*
X505836Y26232D02*
X505935Y26234D01*
X506035Y26240D01*
X506134Y26249D01*
X506232Y26262D01*
X506330Y26279D01*
X506428Y26300D01*
X506524Y26325D01*
X506619Y26353D01*
X506713Y26385D01*
X506806Y26420D01*
X506898Y26459D01*
X506988Y26502D01*
X507076Y26547D01*
X507163Y26597D01*
X507247Y26649D01*
X507330Y26705D01*
X507410Y26763D01*
X507488Y26825D01*
X507563Y26890D01*
X507636Y26958D01*
X507706Y27028D01*
X507774Y27101D01*
X507839Y27176D01*
X507901Y27254D01*
X507959Y27334D01*
X508015Y27417D01*
X508067Y27501D01*
X508117Y27588D01*
X508162Y27676D01*
X508205Y27766D01*
X508244Y27858D01*
X508279Y27950D01*
X508311Y28045D01*
X508339Y28140D01*
X508364Y28236D01*
X508385Y28334D01*
X508402Y28432D01*
X508415Y28530D01*
X508424Y28629D01*
X508430Y28729D01*
X508432Y28828D01*
X508432Y31424D01*
X505836Y35790D02*
X508432Y39035D01*
X496748Y39035D01*
X496748Y35790D02*
X496748Y42281D01*
D11*
X501142Y113030D02*
X501142Y207010D01*
X540258Y113030D02*
X540256Y112908D01*
X540250Y112786D01*
X540240Y112664D01*
X540227Y112543D01*
X540209Y112422D01*
X540188Y112302D01*
X540162Y112182D01*
X540133Y112064D01*
X540101Y111946D01*
X540064Y111829D01*
X540024Y111714D01*
X539980Y111600D01*
X539932Y111488D01*
X539881Y111377D01*
X539826Y111268D01*
X539768Y111160D01*
X539706Y111055D01*
X539641Y110952D01*
X539573Y110850D01*
X539501Y110751D01*
X539427Y110655D01*
X539349Y110560D01*
X539268Y110469D01*
X539185Y110379D01*
X539099Y110293D01*
X539009Y110210D01*
X538918Y110129D01*
X538823Y110051D01*
X538727Y109977D01*
X538628Y109905D01*
X538526Y109837D01*
X538423Y109772D01*
X538318Y109710D01*
X538210Y109652D01*
X538101Y109597D01*
X537990Y109546D01*
X537878Y109498D01*
X537764Y109454D01*
X537649Y109414D01*
X537532Y109377D01*
X537414Y109345D01*
X537296Y109316D01*
X537176Y109290D01*
X537056Y109269D01*
X536935Y109251D01*
X536814Y109238D01*
X536692Y109228D01*
X536570Y109222D01*
X536448Y109220D01*
X501142Y207010D02*
X501144Y207132D01*
X501150Y207254D01*
X501160Y207376D01*
X501173Y207497D01*
X501191Y207618D01*
X501212Y207738D01*
X501238Y207858D01*
X501267Y207976D01*
X501299Y208094D01*
X501336Y208211D01*
X501376Y208326D01*
X501420Y208440D01*
X501468Y208552D01*
X501519Y208663D01*
X501574Y208772D01*
X501632Y208880D01*
X501694Y208985D01*
X501759Y209088D01*
X501827Y209190D01*
X501899Y209289D01*
X501973Y209385D01*
X502051Y209480D01*
X502132Y209571D01*
X502215Y209661D01*
X502301Y209747D01*
X502391Y209830D01*
X502482Y209911D01*
X502577Y209989D01*
X502673Y210063D01*
X502772Y210135D01*
X502874Y210203D01*
X502977Y210268D01*
X503082Y210330D01*
X503190Y210388D01*
X503299Y210443D01*
X503410Y210494D01*
X503522Y210542D01*
X503636Y210586D01*
X503751Y210626D01*
X503868Y210663D01*
X503986Y210695D01*
X504104Y210724D01*
X504224Y210750D01*
X504344Y210771D01*
X504465Y210789D01*
X504586Y210802D01*
X504708Y210812D01*
X504830Y210818D01*
X504952Y210820D01*
X501142Y113030D02*
X501144Y112908D01*
X501150Y112786D01*
X501160Y112664D01*
X501173Y112543D01*
X501191Y112422D01*
X501212Y112302D01*
X501238Y112182D01*
X501267Y112064D01*
X501299Y111946D01*
X501336Y111829D01*
X501376Y111714D01*
X501420Y111600D01*
X501468Y111488D01*
X501519Y111377D01*
X501574Y111268D01*
X501632Y111160D01*
X501694Y111055D01*
X501759Y110952D01*
X501827Y110850D01*
X501899Y110751D01*
X501973Y110655D01*
X502051Y110560D01*
X502132Y110469D01*
X502215Y110379D01*
X502301Y110293D01*
X502391Y110210D01*
X502482Y110129D01*
X502577Y110051D01*
X502673Y109977D01*
X502772Y109905D01*
X502874Y109837D01*
X502977Y109772D01*
X503082Y109710D01*
X503190Y109652D01*
X503299Y109597D01*
X503410Y109546D01*
X503522Y109498D01*
X503636Y109454D01*
X503751Y109414D01*
X503868Y109377D01*
X503986Y109345D01*
X504104Y109316D01*
X504224Y109290D01*
X504344Y109269D01*
X504465Y109251D01*
X504586Y109238D01*
X504708Y109228D01*
X504830Y109222D01*
X504952Y109220D01*
X540258Y207010D02*
X540256Y207132D01*
X540250Y207254D01*
X540240Y207376D01*
X540227Y207497D01*
X540209Y207618D01*
X540188Y207738D01*
X540162Y207858D01*
X540133Y207976D01*
X540101Y208094D01*
X540064Y208211D01*
X540024Y208326D01*
X539980Y208440D01*
X539932Y208552D01*
X539881Y208663D01*
X539826Y208772D01*
X539768Y208880D01*
X539706Y208985D01*
X539641Y209088D01*
X539573Y209190D01*
X539501Y209289D01*
X539427Y209385D01*
X539349Y209480D01*
X539268Y209571D01*
X539185Y209661D01*
X539099Y209747D01*
X539009Y209830D01*
X538918Y209911D01*
X538823Y209989D01*
X538727Y210063D01*
X538628Y210135D01*
X538526Y210203D01*
X538423Y210268D01*
X538318Y210330D01*
X538210Y210388D01*
X538101Y210443D01*
X537990Y210494D01*
X537878Y210542D01*
X537764Y210586D01*
X537649Y210626D01*
X537532Y210663D01*
X537414Y210695D01*
X537296Y210724D01*
X537176Y210750D01*
X537056Y210771D01*
X536935Y210789D01*
X536814Y210802D01*
X536692Y210812D01*
X536570Y210818D01*
X536448Y210820D01*
X540258Y207010D02*
X540258Y113030D01*
X536448Y109220D02*
X504952Y109220D01*
X504952Y210820D02*
X536448Y210820D01*
X525780Y210820D02*
X525778Y210679D01*
X525772Y210538D01*
X525762Y210397D01*
X525749Y210256D01*
X525731Y210116D01*
X525709Y209977D01*
X525684Y209838D01*
X525655Y209699D01*
X525622Y209562D01*
X525585Y209426D01*
X525544Y209291D01*
X525500Y209156D01*
X525452Y209024D01*
X525400Y208892D01*
X525345Y208762D01*
X525286Y208634D01*
X525223Y208507D01*
X525157Y208383D01*
X525088Y208260D01*
X525015Y208139D01*
X524939Y208020D01*
X524859Y207903D01*
X524776Y207789D01*
X524691Y207676D01*
X524602Y207567D01*
X524510Y207459D01*
X524415Y207355D01*
X524317Y207253D01*
X524216Y207154D01*
X524113Y207057D01*
X524007Y206964D01*
X523899Y206874D01*
X523788Y206786D01*
X523675Y206702D01*
X523559Y206621D01*
X523441Y206543D01*
X523321Y206468D01*
X523199Y206397D01*
X523075Y206329D01*
X522949Y206265D01*
X522822Y206204D01*
X522693Y206147D01*
X522562Y206094D01*
X522430Y206044D01*
X522297Y205997D01*
X522162Y205955D01*
X522026Y205916D01*
X521889Y205881D01*
X521752Y205850D01*
X521613Y205823D01*
X521474Y205799D01*
X521334Y205780D01*
X521194Y205764D01*
X521053Y205752D01*
X520912Y205744D01*
X520771Y205740D01*
X520629Y205740D01*
X520488Y205744D01*
X520347Y205752D01*
X520206Y205764D01*
X520066Y205780D01*
X519926Y205799D01*
X519787Y205823D01*
X519648Y205850D01*
X519511Y205881D01*
X519374Y205916D01*
X519238Y205955D01*
X519103Y205997D01*
X518970Y206044D01*
X518838Y206094D01*
X518707Y206147D01*
X518578Y206204D01*
X518451Y206265D01*
X518325Y206329D01*
X518201Y206397D01*
X518079Y206468D01*
X517959Y206543D01*
X517841Y206621D01*
X517725Y206702D01*
X517612Y206786D01*
X517501Y206874D01*
X517393Y206964D01*
X517287Y207057D01*
X517184Y207154D01*
X517083Y207253D01*
X516985Y207355D01*
X516890Y207459D01*
X516798Y207567D01*
X516709Y207676D01*
X516624Y207789D01*
X516541Y207903D01*
X516461Y208020D01*
X516385Y208139D01*
X516312Y208260D01*
X516243Y208383D01*
X516177Y208507D01*
X516114Y208634D01*
X516055Y208762D01*
X516000Y208892D01*
X515948Y209024D01*
X515900Y209156D01*
X515856Y209291D01*
X515815Y209426D01*
X515778Y209562D01*
X515745Y209699D01*
X515716Y209838D01*
X515691Y209977D01*
X515669Y210116D01*
X515651Y210256D01*
X515638Y210397D01*
X515628Y210538D01*
X515622Y210679D01*
X515620Y210820D01*
D12*
X536702Y210820D02*
X536702Y109220D01*
D11*
X267733Y313182D02*
X267733Y319278D01*
X268410Y313182D02*
X267055Y313182D01*
X267055Y319278D02*
X268410Y319278D01*
X263711Y319278D02*
X263711Y313182D01*
X260325Y313182D02*
X263711Y319278D01*
X260325Y319278D02*
X260325Y313182D01*
X256218Y313182D02*
X256218Y319278D01*
X254525Y319278D01*
X254444Y319276D01*
X254364Y319270D01*
X254284Y319261D01*
X254205Y319247D01*
X254126Y319230D01*
X254048Y319209D01*
X253971Y319185D01*
X253896Y319157D01*
X253822Y319125D01*
X253749Y319090D01*
X253679Y319051D01*
X253610Y319009D01*
X253543Y318964D01*
X253478Y318916D01*
X253416Y318864D01*
X253357Y318810D01*
X253300Y318753D01*
X253246Y318694D01*
X253194Y318632D01*
X253146Y318567D01*
X253101Y318500D01*
X253059Y318432D01*
X253020Y318361D01*
X252985Y318288D01*
X252953Y318214D01*
X252925Y318139D01*
X252901Y318062D01*
X252880Y317984D01*
X252863Y317905D01*
X252849Y317826D01*
X252840Y317746D01*
X252834Y317666D01*
X252832Y317585D01*
X252834Y317504D01*
X252840Y317424D01*
X252849Y317344D01*
X252863Y317265D01*
X252880Y317186D01*
X252901Y317108D01*
X252925Y317031D01*
X252953Y316956D01*
X252985Y316882D01*
X253020Y316809D01*
X253059Y316739D01*
X253101Y316670D01*
X253146Y316603D01*
X253194Y316538D01*
X253246Y316476D01*
X253300Y316417D01*
X253357Y316360D01*
X253416Y316306D01*
X253478Y316254D01*
X253543Y316206D01*
X253610Y316161D01*
X253679Y316119D01*
X253749Y316080D01*
X253822Y316045D01*
X253896Y316013D01*
X253971Y315985D01*
X254048Y315961D01*
X254126Y315940D01*
X254205Y315923D01*
X254284Y315909D01*
X254364Y315900D01*
X254444Y315894D01*
X254525Y315892D01*
X254525Y315891D02*
X256218Y315891D01*
X249538Y314875D02*
X249538Y319278D01*
X249538Y314875D02*
X249536Y314794D01*
X249530Y314714D01*
X249521Y314634D01*
X249507Y314555D01*
X249490Y314476D01*
X249469Y314398D01*
X249445Y314321D01*
X249417Y314246D01*
X249385Y314172D01*
X249350Y314099D01*
X249311Y314029D01*
X249269Y313960D01*
X249224Y313893D01*
X249176Y313828D01*
X249124Y313766D01*
X249070Y313707D01*
X249013Y313650D01*
X248954Y313596D01*
X248892Y313544D01*
X248827Y313496D01*
X248760Y313451D01*
X248692Y313409D01*
X248621Y313370D01*
X248548Y313335D01*
X248474Y313303D01*
X248399Y313275D01*
X248322Y313251D01*
X248244Y313230D01*
X248165Y313213D01*
X248086Y313199D01*
X248006Y313190D01*
X247926Y313184D01*
X247845Y313182D01*
X247764Y313184D01*
X247684Y313190D01*
X247604Y313199D01*
X247525Y313213D01*
X247446Y313230D01*
X247368Y313251D01*
X247291Y313275D01*
X247216Y313303D01*
X247142Y313335D01*
X247069Y313370D01*
X246999Y313409D01*
X246930Y313451D01*
X246863Y313496D01*
X246798Y313544D01*
X246736Y313596D01*
X246677Y313650D01*
X246620Y313707D01*
X246566Y313766D01*
X246514Y313828D01*
X246466Y313893D01*
X246421Y313960D01*
X246379Y314029D01*
X246340Y314099D01*
X246305Y314172D01*
X246273Y314246D01*
X246245Y314321D01*
X246221Y314398D01*
X246200Y314476D01*
X246183Y314555D01*
X246169Y314634D01*
X246160Y314714D01*
X246154Y314794D01*
X246152Y314875D01*
X246151Y314875D02*
X246151Y319278D01*
X241215Y319278D02*
X241215Y313182D01*
X242909Y319278D02*
X239522Y319278D01*
X231225Y219202D02*
X228515Y219202D01*
X231225Y219202D02*
X231306Y219204D01*
X231386Y219210D01*
X231466Y219219D01*
X231545Y219233D01*
X231624Y219250D01*
X231702Y219271D01*
X231779Y219295D01*
X231854Y219323D01*
X231928Y219355D01*
X232001Y219390D01*
X232072Y219429D01*
X232140Y219471D01*
X232207Y219516D01*
X232272Y219564D01*
X232334Y219616D01*
X232393Y219670D01*
X232450Y219727D01*
X232504Y219786D01*
X232556Y219848D01*
X232604Y219913D01*
X232649Y219980D01*
X232691Y220049D01*
X232730Y220119D01*
X232765Y220192D01*
X232797Y220266D01*
X232825Y220341D01*
X232849Y220418D01*
X232870Y220496D01*
X232887Y220575D01*
X232901Y220654D01*
X232910Y220734D01*
X232916Y220814D01*
X232918Y220895D01*
X232916Y220976D01*
X232910Y221056D01*
X232901Y221136D01*
X232887Y221215D01*
X232870Y221294D01*
X232849Y221372D01*
X232825Y221449D01*
X232797Y221524D01*
X232765Y221598D01*
X232730Y221671D01*
X232691Y221742D01*
X232649Y221810D01*
X232604Y221877D01*
X232556Y221942D01*
X232504Y222004D01*
X232450Y222063D01*
X232393Y222120D01*
X232334Y222174D01*
X232272Y222226D01*
X232207Y222274D01*
X232140Y222319D01*
X232071Y222361D01*
X232001Y222400D01*
X231928Y222435D01*
X231854Y222467D01*
X231779Y222495D01*
X231702Y222519D01*
X231624Y222540D01*
X231545Y222557D01*
X231466Y222571D01*
X231386Y222580D01*
X231306Y222586D01*
X231225Y222588D01*
X231225Y222589D02*
X228515Y222589D01*
X228515Y222588D02*
X228434Y222586D01*
X228354Y222580D01*
X228274Y222571D01*
X228195Y222557D01*
X228116Y222540D01*
X228038Y222519D01*
X227961Y222495D01*
X227886Y222467D01*
X227812Y222435D01*
X227739Y222400D01*
X227669Y222361D01*
X227600Y222319D01*
X227533Y222274D01*
X227468Y222226D01*
X227406Y222174D01*
X227347Y222120D01*
X227290Y222063D01*
X227236Y222004D01*
X227184Y221942D01*
X227136Y221877D01*
X227091Y221810D01*
X227049Y221742D01*
X227010Y221671D01*
X226975Y221598D01*
X226943Y221524D01*
X226915Y221449D01*
X226891Y221372D01*
X226870Y221294D01*
X226853Y221215D01*
X226839Y221136D01*
X226830Y221056D01*
X226824Y220976D01*
X226822Y220895D01*
X226824Y220814D01*
X226830Y220734D01*
X226839Y220654D01*
X226853Y220575D01*
X226870Y220496D01*
X226891Y220418D01*
X226915Y220341D01*
X226943Y220266D01*
X226975Y220192D01*
X227010Y220119D01*
X227049Y220049D01*
X227091Y219980D01*
X227136Y219913D01*
X227184Y219848D01*
X227236Y219786D01*
X227290Y219727D01*
X227347Y219670D01*
X227406Y219616D01*
X227468Y219564D01*
X227533Y219516D01*
X227600Y219471D01*
X227669Y219429D01*
X227739Y219390D01*
X227812Y219355D01*
X227886Y219323D01*
X227961Y219295D01*
X228038Y219271D01*
X228116Y219250D01*
X228195Y219233D01*
X228274Y219219D01*
X228354Y219210D01*
X228434Y219204D01*
X228515Y219202D01*
X228515Y226289D02*
X232918Y226289D01*
X228515Y226289D02*
X228434Y226291D01*
X228354Y226297D01*
X228274Y226306D01*
X228195Y226320D01*
X228116Y226337D01*
X228038Y226358D01*
X227961Y226382D01*
X227886Y226410D01*
X227812Y226442D01*
X227739Y226477D01*
X227669Y226516D01*
X227600Y226558D01*
X227533Y226603D01*
X227468Y226651D01*
X227406Y226703D01*
X227347Y226757D01*
X227290Y226814D01*
X227236Y226873D01*
X227184Y226935D01*
X227136Y227000D01*
X227091Y227067D01*
X227049Y227136D01*
X227010Y227206D01*
X226975Y227279D01*
X226943Y227353D01*
X226915Y227428D01*
X226891Y227505D01*
X226870Y227583D01*
X226853Y227662D01*
X226839Y227741D01*
X226830Y227821D01*
X226824Y227901D01*
X226822Y227982D01*
X226824Y228063D01*
X226830Y228143D01*
X226839Y228223D01*
X226853Y228302D01*
X226870Y228381D01*
X226891Y228459D01*
X226915Y228536D01*
X226943Y228611D01*
X226975Y228685D01*
X227010Y228758D01*
X227049Y228829D01*
X227091Y228897D01*
X227136Y228964D01*
X227184Y229029D01*
X227236Y229091D01*
X227290Y229150D01*
X227347Y229207D01*
X227406Y229261D01*
X227468Y229313D01*
X227533Y229361D01*
X227600Y229406D01*
X227669Y229448D01*
X227739Y229487D01*
X227812Y229522D01*
X227886Y229554D01*
X227961Y229582D01*
X228038Y229606D01*
X228116Y229627D01*
X228195Y229644D01*
X228274Y229658D01*
X228354Y229667D01*
X228434Y229673D01*
X228515Y229675D01*
X232918Y229675D01*
X232918Y234611D02*
X226822Y234611D01*
X232918Y232918D02*
X232918Y236305D01*
X232918Y239725D02*
X226822Y239725D01*
X232918Y239725D02*
X232918Y241418D01*
X232916Y241499D01*
X232910Y241579D01*
X232901Y241659D01*
X232887Y241738D01*
X232870Y241817D01*
X232849Y241895D01*
X232825Y241972D01*
X232797Y242047D01*
X232765Y242121D01*
X232730Y242194D01*
X232691Y242265D01*
X232649Y242333D01*
X232604Y242400D01*
X232556Y242465D01*
X232504Y242527D01*
X232450Y242586D01*
X232393Y242643D01*
X232334Y242697D01*
X232272Y242749D01*
X232207Y242797D01*
X232140Y242842D01*
X232072Y242884D01*
X232001Y242923D01*
X231928Y242958D01*
X231854Y242990D01*
X231779Y243018D01*
X231702Y243042D01*
X231624Y243063D01*
X231545Y243080D01*
X231466Y243094D01*
X231386Y243103D01*
X231306Y243109D01*
X231225Y243111D01*
X231144Y243109D01*
X231064Y243103D01*
X230984Y243094D01*
X230905Y243080D01*
X230826Y243063D01*
X230748Y243042D01*
X230671Y243018D01*
X230596Y242990D01*
X230522Y242958D01*
X230449Y242923D01*
X230379Y242884D01*
X230310Y242842D01*
X230243Y242797D01*
X230178Y242749D01*
X230116Y242697D01*
X230057Y242643D01*
X230000Y242586D01*
X229946Y242527D01*
X229894Y242465D01*
X229846Y242400D01*
X229801Y242333D01*
X229759Y242265D01*
X229720Y242194D01*
X229685Y242121D01*
X229653Y242047D01*
X229625Y241972D01*
X229601Y241895D01*
X229580Y241817D01*
X229563Y241738D01*
X229549Y241659D01*
X229540Y241579D01*
X229534Y241499D01*
X229532Y241418D01*
X229531Y241418D02*
X229531Y239725D01*
X228515Y246405D02*
X232918Y246405D01*
X228515Y246406D02*
X228434Y246408D01*
X228354Y246414D01*
X228274Y246423D01*
X228195Y246437D01*
X228116Y246454D01*
X228038Y246475D01*
X227961Y246499D01*
X227886Y246527D01*
X227812Y246559D01*
X227739Y246594D01*
X227669Y246633D01*
X227600Y246675D01*
X227533Y246720D01*
X227468Y246768D01*
X227406Y246820D01*
X227347Y246874D01*
X227290Y246931D01*
X227236Y246990D01*
X227184Y247052D01*
X227136Y247117D01*
X227091Y247184D01*
X227049Y247253D01*
X227010Y247323D01*
X226975Y247396D01*
X226943Y247470D01*
X226915Y247545D01*
X226891Y247622D01*
X226870Y247700D01*
X226853Y247779D01*
X226839Y247858D01*
X226830Y247938D01*
X226824Y248018D01*
X226822Y248099D01*
X226824Y248180D01*
X226830Y248260D01*
X226839Y248340D01*
X226853Y248419D01*
X226870Y248498D01*
X226891Y248576D01*
X226915Y248653D01*
X226943Y248728D01*
X226975Y248802D01*
X227010Y248875D01*
X227049Y248946D01*
X227091Y249014D01*
X227136Y249081D01*
X227184Y249146D01*
X227236Y249208D01*
X227290Y249267D01*
X227347Y249324D01*
X227406Y249378D01*
X227468Y249430D01*
X227533Y249478D01*
X227600Y249523D01*
X227669Y249565D01*
X227739Y249604D01*
X227812Y249639D01*
X227886Y249671D01*
X227961Y249699D01*
X228038Y249723D01*
X228116Y249744D01*
X228195Y249761D01*
X228274Y249775D01*
X228354Y249784D01*
X228434Y249790D01*
X228515Y249792D01*
X232918Y249792D01*
X232918Y254728D02*
X226822Y254728D01*
X232918Y253035D02*
X232918Y256421D01*
X231563Y259435D02*
X232918Y261129D01*
X226822Y261129D01*
X226822Y262822D02*
X226822Y259435D01*
X225975Y117602D02*
X228685Y117602D01*
X228766Y117604D01*
X228846Y117610D01*
X228926Y117619D01*
X229005Y117633D01*
X229084Y117650D01*
X229162Y117671D01*
X229239Y117695D01*
X229314Y117723D01*
X229388Y117755D01*
X229461Y117790D01*
X229532Y117829D01*
X229600Y117871D01*
X229667Y117916D01*
X229732Y117964D01*
X229794Y118016D01*
X229853Y118070D01*
X229910Y118127D01*
X229964Y118186D01*
X230016Y118248D01*
X230064Y118313D01*
X230109Y118380D01*
X230151Y118449D01*
X230190Y118519D01*
X230225Y118592D01*
X230257Y118666D01*
X230285Y118741D01*
X230309Y118818D01*
X230330Y118896D01*
X230347Y118975D01*
X230361Y119054D01*
X230370Y119134D01*
X230376Y119214D01*
X230378Y119295D01*
X230376Y119376D01*
X230370Y119456D01*
X230361Y119536D01*
X230347Y119615D01*
X230330Y119694D01*
X230309Y119772D01*
X230285Y119849D01*
X230257Y119924D01*
X230225Y119998D01*
X230190Y120071D01*
X230151Y120142D01*
X230109Y120210D01*
X230064Y120277D01*
X230016Y120342D01*
X229964Y120404D01*
X229910Y120463D01*
X229853Y120520D01*
X229794Y120574D01*
X229732Y120626D01*
X229667Y120674D01*
X229600Y120719D01*
X229531Y120761D01*
X229461Y120800D01*
X229388Y120835D01*
X229314Y120867D01*
X229239Y120895D01*
X229162Y120919D01*
X229084Y120940D01*
X229005Y120957D01*
X228926Y120971D01*
X228846Y120980D01*
X228766Y120986D01*
X228685Y120988D01*
X228685Y120989D02*
X225975Y120989D01*
X225975Y120988D02*
X225894Y120986D01*
X225814Y120980D01*
X225734Y120971D01*
X225655Y120957D01*
X225576Y120940D01*
X225498Y120919D01*
X225421Y120895D01*
X225346Y120867D01*
X225272Y120835D01*
X225199Y120800D01*
X225129Y120761D01*
X225060Y120719D01*
X224993Y120674D01*
X224928Y120626D01*
X224866Y120574D01*
X224807Y120520D01*
X224750Y120463D01*
X224696Y120404D01*
X224644Y120342D01*
X224596Y120277D01*
X224551Y120210D01*
X224509Y120142D01*
X224470Y120071D01*
X224435Y119998D01*
X224403Y119924D01*
X224375Y119849D01*
X224351Y119772D01*
X224330Y119694D01*
X224313Y119615D01*
X224299Y119536D01*
X224290Y119456D01*
X224284Y119376D01*
X224282Y119295D01*
X224284Y119214D01*
X224290Y119134D01*
X224299Y119054D01*
X224313Y118975D01*
X224330Y118896D01*
X224351Y118818D01*
X224375Y118741D01*
X224403Y118666D01*
X224435Y118592D01*
X224470Y118519D01*
X224509Y118449D01*
X224551Y118380D01*
X224596Y118313D01*
X224644Y118248D01*
X224696Y118186D01*
X224750Y118127D01*
X224807Y118070D01*
X224866Y118016D01*
X224928Y117964D01*
X224993Y117916D01*
X225060Y117871D01*
X225129Y117829D01*
X225199Y117790D01*
X225272Y117755D01*
X225346Y117723D01*
X225421Y117695D01*
X225498Y117671D01*
X225576Y117650D01*
X225655Y117633D01*
X225734Y117619D01*
X225814Y117610D01*
X225894Y117604D01*
X225975Y117602D01*
X225975Y124689D02*
X230378Y124689D01*
X225975Y124689D02*
X225894Y124691D01*
X225814Y124697D01*
X225734Y124706D01*
X225655Y124720D01*
X225576Y124737D01*
X225498Y124758D01*
X225421Y124782D01*
X225346Y124810D01*
X225272Y124842D01*
X225199Y124877D01*
X225129Y124916D01*
X225060Y124958D01*
X224993Y125003D01*
X224928Y125051D01*
X224866Y125103D01*
X224807Y125157D01*
X224750Y125214D01*
X224696Y125273D01*
X224644Y125335D01*
X224596Y125400D01*
X224551Y125467D01*
X224509Y125536D01*
X224470Y125606D01*
X224435Y125679D01*
X224403Y125753D01*
X224375Y125828D01*
X224351Y125905D01*
X224330Y125983D01*
X224313Y126062D01*
X224299Y126141D01*
X224290Y126221D01*
X224284Y126301D01*
X224282Y126382D01*
X224284Y126463D01*
X224290Y126543D01*
X224299Y126623D01*
X224313Y126702D01*
X224330Y126781D01*
X224351Y126859D01*
X224375Y126936D01*
X224403Y127011D01*
X224435Y127085D01*
X224470Y127158D01*
X224509Y127229D01*
X224551Y127297D01*
X224596Y127364D01*
X224644Y127429D01*
X224696Y127491D01*
X224750Y127550D01*
X224807Y127607D01*
X224866Y127661D01*
X224928Y127713D01*
X224993Y127761D01*
X225060Y127806D01*
X225129Y127848D01*
X225199Y127887D01*
X225272Y127922D01*
X225346Y127954D01*
X225421Y127982D01*
X225498Y128006D01*
X225576Y128027D01*
X225655Y128044D01*
X225734Y128058D01*
X225814Y128067D01*
X225894Y128073D01*
X225975Y128075D01*
X230378Y128075D01*
X230378Y133011D02*
X224282Y133011D01*
X230378Y131318D02*
X230378Y134705D01*
X230378Y138125D02*
X224282Y138125D01*
X230378Y138125D02*
X230378Y139818D01*
X230376Y139899D01*
X230370Y139979D01*
X230361Y140059D01*
X230347Y140138D01*
X230330Y140217D01*
X230309Y140295D01*
X230285Y140372D01*
X230257Y140447D01*
X230225Y140521D01*
X230190Y140594D01*
X230151Y140665D01*
X230109Y140733D01*
X230064Y140800D01*
X230016Y140865D01*
X229964Y140927D01*
X229910Y140986D01*
X229853Y141043D01*
X229794Y141097D01*
X229732Y141149D01*
X229667Y141197D01*
X229600Y141242D01*
X229532Y141284D01*
X229461Y141323D01*
X229388Y141358D01*
X229314Y141390D01*
X229239Y141418D01*
X229162Y141442D01*
X229084Y141463D01*
X229005Y141480D01*
X228926Y141494D01*
X228846Y141503D01*
X228766Y141509D01*
X228685Y141511D01*
X228604Y141509D01*
X228524Y141503D01*
X228444Y141494D01*
X228365Y141480D01*
X228286Y141463D01*
X228208Y141442D01*
X228131Y141418D01*
X228056Y141390D01*
X227982Y141358D01*
X227909Y141323D01*
X227839Y141284D01*
X227770Y141242D01*
X227703Y141197D01*
X227638Y141149D01*
X227576Y141097D01*
X227517Y141043D01*
X227460Y140986D01*
X227406Y140927D01*
X227354Y140865D01*
X227306Y140800D01*
X227261Y140733D01*
X227219Y140665D01*
X227180Y140594D01*
X227145Y140521D01*
X227113Y140447D01*
X227085Y140372D01*
X227061Y140295D01*
X227040Y140217D01*
X227023Y140138D01*
X227009Y140059D01*
X227000Y139979D01*
X226994Y139899D01*
X226992Y139818D01*
X226991Y139818D02*
X226991Y138125D01*
X225975Y144805D02*
X230378Y144805D01*
X225975Y144806D02*
X225894Y144808D01*
X225814Y144814D01*
X225734Y144823D01*
X225655Y144837D01*
X225576Y144854D01*
X225498Y144875D01*
X225421Y144899D01*
X225346Y144927D01*
X225272Y144959D01*
X225199Y144994D01*
X225129Y145033D01*
X225060Y145075D01*
X224993Y145120D01*
X224928Y145168D01*
X224866Y145220D01*
X224807Y145274D01*
X224750Y145331D01*
X224696Y145390D01*
X224644Y145452D01*
X224596Y145517D01*
X224551Y145584D01*
X224509Y145653D01*
X224470Y145723D01*
X224435Y145796D01*
X224403Y145870D01*
X224375Y145945D01*
X224351Y146022D01*
X224330Y146100D01*
X224313Y146179D01*
X224299Y146258D01*
X224290Y146338D01*
X224284Y146418D01*
X224282Y146499D01*
X224284Y146580D01*
X224290Y146660D01*
X224299Y146740D01*
X224313Y146819D01*
X224330Y146898D01*
X224351Y146976D01*
X224375Y147053D01*
X224403Y147128D01*
X224435Y147202D01*
X224470Y147275D01*
X224509Y147346D01*
X224551Y147414D01*
X224596Y147481D01*
X224644Y147546D01*
X224696Y147608D01*
X224750Y147667D01*
X224807Y147724D01*
X224866Y147778D01*
X224928Y147830D01*
X224993Y147878D01*
X225060Y147923D01*
X225129Y147965D01*
X225199Y148004D01*
X225272Y148039D01*
X225346Y148071D01*
X225421Y148099D01*
X225498Y148123D01*
X225576Y148144D01*
X225655Y148161D01*
X225734Y148175D01*
X225814Y148184D01*
X225894Y148190D01*
X225975Y148192D01*
X230378Y148192D01*
X230378Y153128D02*
X224282Y153128D01*
X230378Y151435D02*
X230378Y154821D01*
X230378Y159698D02*
X230376Y159775D01*
X230370Y159852D01*
X230360Y159929D01*
X230347Y160005D01*
X230329Y160080D01*
X230308Y160154D01*
X230283Y160227D01*
X230254Y160299D01*
X230222Y160369D01*
X230187Y160438D01*
X230147Y160504D01*
X230105Y160569D01*
X230059Y160631D01*
X230010Y160691D01*
X229959Y160748D01*
X229904Y160803D01*
X229847Y160854D01*
X229787Y160903D01*
X229725Y160949D01*
X229660Y160991D01*
X229594Y161031D01*
X229525Y161066D01*
X229455Y161098D01*
X229383Y161127D01*
X229310Y161152D01*
X229236Y161173D01*
X229161Y161191D01*
X229085Y161204D01*
X229008Y161214D01*
X228931Y161220D01*
X228854Y161222D01*
X230378Y159698D02*
X230376Y159613D01*
X230371Y159528D01*
X230361Y159444D01*
X230349Y159360D01*
X230332Y159277D01*
X230312Y159194D01*
X230288Y159113D01*
X230261Y159032D01*
X230231Y158953D01*
X230197Y158875D01*
X230159Y158799D01*
X230119Y158724D01*
X230075Y158652D01*
X230028Y158581D01*
X229978Y158512D01*
X229925Y158446D01*
X229870Y158382D01*
X229811Y158320D01*
X229750Y158261D01*
X229687Y158205D01*
X229621Y158151D01*
X229552Y158101D01*
X229482Y158053D01*
X229410Y158009D01*
X229336Y157967D01*
X229260Y157929D01*
X229182Y157895D01*
X229103Y157863D01*
X229023Y157835D01*
X227669Y160714D02*
X227724Y160769D01*
X227781Y160822D01*
X227841Y160871D01*
X227904Y160918D01*
X227968Y160962D01*
X228035Y161002D01*
X228103Y161040D01*
X228174Y161074D01*
X228245Y161105D01*
X228318Y161132D01*
X228392Y161156D01*
X228468Y161176D01*
X228544Y161192D01*
X228621Y161205D01*
X228698Y161215D01*
X228776Y161220D01*
X228854Y161222D01*
X227669Y160714D02*
X224282Y157835D01*
X224282Y161222D01*
X228515Y5842D02*
X231225Y5842D01*
X231306Y5844D01*
X231386Y5850D01*
X231466Y5859D01*
X231545Y5873D01*
X231624Y5890D01*
X231702Y5911D01*
X231779Y5935D01*
X231854Y5963D01*
X231928Y5995D01*
X232001Y6030D01*
X232072Y6069D01*
X232140Y6111D01*
X232207Y6156D01*
X232272Y6204D01*
X232334Y6256D01*
X232393Y6310D01*
X232450Y6367D01*
X232504Y6426D01*
X232556Y6488D01*
X232604Y6553D01*
X232649Y6620D01*
X232691Y6689D01*
X232730Y6759D01*
X232765Y6832D01*
X232797Y6906D01*
X232825Y6981D01*
X232849Y7058D01*
X232870Y7136D01*
X232887Y7215D01*
X232901Y7294D01*
X232910Y7374D01*
X232916Y7454D01*
X232918Y7535D01*
X232916Y7616D01*
X232910Y7696D01*
X232901Y7776D01*
X232887Y7855D01*
X232870Y7934D01*
X232849Y8012D01*
X232825Y8089D01*
X232797Y8164D01*
X232765Y8238D01*
X232730Y8311D01*
X232691Y8382D01*
X232649Y8450D01*
X232604Y8517D01*
X232556Y8582D01*
X232504Y8644D01*
X232450Y8703D01*
X232393Y8760D01*
X232334Y8814D01*
X232272Y8866D01*
X232207Y8914D01*
X232140Y8959D01*
X232071Y9001D01*
X232001Y9040D01*
X231928Y9075D01*
X231854Y9107D01*
X231779Y9135D01*
X231702Y9159D01*
X231624Y9180D01*
X231545Y9197D01*
X231466Y9211D01*
X231386Y9220D01*
X231306Y9226D01*
X231225Y9228D01*
X231225Y9229D02*
X228515Y9229D01*
X228515Y9228D02*
X228434Y9226D01*
X228354Y9220D01*
X228274Y9211D01*
X228195Y9197D01*
X228116Y9180D01*
X228038Y9159D01*
X227961Y9135D01*
X227886Y9107D01*
X227812Y9075D01*
X227739Y9040D01*
X227669Y9001D01*
X227600Y8959D01*
X227533Y8914D01*
X227468Y8866D01*
X227406Y8814D01*
X227347Y8760D01*
X227290Y8703D01*
X227236Y8644D01*
X227184Y8582D01*
X227136Y8517D01*
X227091Y8450D01*
X227049Y8382D01*
X227010Y8311D01*
X226975Y8238D01*
X226943Y8164D01*
X226915Y8089D01*
X226891Y8012D01*
X226870Y7934D01*
X226853Y7855D01*
X226839Y7776D01*
X226830Y7696D01*
X226824Y7616D01*
X226822Y7535D01*
X226824Y7454D01*
X226830Y7374D01*
X226839Y7294D01*
X226853Y7215D01*
X226870Y7136D01*
X226891Y7058D01*
X226915Y6981D01*
X226943Y6906D01*
X226975Y6832D01*
X227010Y6759D01*
X227049Y6689D01*
X227091Y6620D01*
X227136Y6553D01*
X227184Y6488D01*
X227236Y6426D01*
X227290Y6367D01*
X227347Y6310D01*
X227406Y6256D01*
X227468Y6204D01*
X227533Y6156D01*
X227600Y6111D01*
X227669Y6069D01*
X227739Y6030D01*
X227812Y5995D01*
X227886Y5963D01*
X227961Y5935D01*
X228038Y5911D01*
X228116Y5890D01*
X228195Y5873D01*
X228274Y5859D01*
X228354Y5850D01*
X228434Y5844D01*
X228515Y5842D01*
X228515Y12929D02*
X232918Y12929D01*
X228515Y12929D02*
X228434Y12931D01*
X228354Y12937D01*
X228274Y12946D01*
X228195Y12960D01*
X228116Y12977D01*
X228038Y12998D01*
X227961Y13022D01*
X227886Y13050D01*
X227812Y13082D01*
X227739Y13117D01*
X227669Y13156D01*
X227600Y13198D01*
X227533Y13243D01*
X227468Y13291D01*
X227406Y13343D01*
X227347Y13397D01*
X227290Y13454D01*
X227236Y13513D01*
X227184Y13575D01*
X227136Y13640D01*
X227091Y13707D01*
X227049Y13776D01*
X227010Y13846D01*
X226975Y13919D01*
X226943Y13993D01*
X226915Y14068D01*
X226891Y14145D01*
X226870Y14223D01*
X226853Y14302D01*
X226839Y14381D01*
X226830Y14461D01*
X226824Y14541D01*
X226822Y14622D01*
X226824Y14703D01*
X226830Y14783D01*
X226839Y14863D01*
X226853Y14942D01*
X226870Y15021D01*
X226891Y15099D01*
X226915Y15176D01*
X226943Y15251D01*
X226975Y15325D01*
X227010Y15398D01*
X227049Y15469D01*
X227091Y15537D01*
X227136Y15604D01*
X227184Y15669D01*
X227236Y15731D01*
X227290Y15790D01*
X227347Y15847D01*
X227406Y15901D01*
X227468Y15953D01*
X227533Y16001D01*
X227600Y16046D01*
X227669Y16088D01*
X227739Y16127D01*
X227812Y16162D01*
X227886Y16194D01*
X227961Y16222D01*
X228038Y16246D01*
X228116Y16267D01*
X228195Y16284D01*
X228274Y16298D01*
X228354Y16307D01*
X228434Y16313D01*
X228515Y16315D01*
X232918Y16315D01*
X232918Y21251D02*
X226822Y21251D01*
X232918Y19558D02*
X232918Y22945D01*
X232918Y26365D02*
X226822Y26365D01*
X232918Y26365D02*
X232918Y28058D01*
X232916Y28139D01*
X232910Y28219D01*
X232901Y28299D01*
X232887Y28378D01*
X232870Y28457D01*
X232849Y28535D01*
X232825Y28612D01*
X232797Y28687D01*
X232765Y28761D01*
X232730Y28834D01*
X232691Y28905D01*
X232649Y28973D01*
X232604Y29040D01*
X232556Y29105D01*
X232504Y29167D01*
X232450Y29226D01*
X232393Y29283D01*
X232334Y29337D01*
X232272Y29389D01*
X232207Y29437D01*
X232140Y29482D01*
X232072Y29524D01*
X232001Y29563D01*
X231928Y29598D01*
X231854Y29630D01*
X231779Y29658D01*
X231702Y29682D01*
X231624Y29703D01*
X231545Y29720D01*
X231466Y29734D01*
X231386Y29743D01*
X231306Y29749D01*
X231225Y29751D01*
X231144Y29749D01*
X231064Y29743D01*
X230984Y29734D01*
X230905Y29720D01*
X230826Y29703D01*
X230748Y29682D01*
X230671Y29658D01*
X230596Y29630D01*
X230522Y29598D01*
X230449Y29563D01*
X230379Y29524D01*
X230310Y29482D01*
X230243Y29437D01*
X230178Y29389D01*
X230116Y29337D01*
X230057Y29283D01*
X230000Y29226D01*
X229946Y29167D01*
X229894Y29105D01*
X229846Y29040D01*
X229801Y28973D01*
X229759Y28905D01*
X229720Y28834D01*
X229685Y28761D01*
X229653Y28687D01*
X229625Y28612D01*
X229601Y28535D01*
X229580Y28457D01*
X229563Y28378D01*
X229549Y28299D01*
X229540Y28219D01*
X229534Y28139D01*
X229532Y28058D01*
X229531Y28058D02*
X229531Y26365D01*
X228515Y33045D02*
X232918Y33045D01*
X228515Y33046D02*
X228434Y33048D01*
X228354Y33054D01*
X228274Y33063D01*
X228195Y33077D01*
X228116Y33094D01*
X228038Y33115D01*
X227961Y33139D01*
X227886Y33167D01*
X227812Y33199D01*
X227739Y33234D01*
X227669Y33273D01*
X227600Y33315D01*
X227533Y33360D01*
X227468Y33408D01*
X227406Y33460D01*
X227347Y33514D01*
X227290Y33571D01*
X227236Y33630D01*
X227184Y33692D01*
X227136Y33757D01*
X227091Y33824D01*
X227049Y33893D01*
X227010Y33963D01*
X226975Y34036D01*
X226943Y34110D01*
X226915Y34185D01*
X226891Y34262D01*
X226870Y34340D01*
X226853Y34419D01*
X226839Y34498D01*
X226830Y34578D01*
X226824Y34658D01*
X226822Y34739D01*
X226824Y34820D01*
X226830Y34900D01*
X226839Y34980D01*
X226853Y35059D01*
X226870Y35138D01*
X226891Y35216D01*
X226915Y35293D01*
X226943Y35368D01*
X226975Y35442D01*
X227010Y35515D01*
X227049Y35586D01*
X227091Y35654D01*
X227136Y35721D01*
X227184Y35786D01*
X227236Y35848D01*
X227290Y35907D01*
X227347Y35964D01*
X227406Y36018D01*
X227468Y36070D01*
X227533Y36118D01*
X227600Y36163D01*
X227669Y36205D01*
X227739Y36244D01*
X227812Y36279D01*
X227886Y36311D01*
X227961Y36339D01*
X228038Y36363D01*
X228116Y36384D01*
X228195Y36401D01*
X228274Y36415D01*
X228354Y36424D01*
X228434Y36430D01*
X228515Y36432D01*
X232918Y36432D01*
X232918Y41368D02*
X226822Y41368D01*
X232918Y39675D02*
X232918Y43061D01*
X226822Y46075D02*
X226822Y47769D01*
X226824Y47850D01*
X226830Y47930D01*
X226839Y48010D01*
X226853Y48089D01*
X226870Y48168D01*
X226891Y48246D01*
X226915Y48323D01*
X226943Y48398D01*
X226975Y48472D01*
X227010Y48545D01*
X227049Y48616D01*
X227091Y48684D01*
X227136Y48751D01*
X227184Y48816D01*
X227236Y48878D01*
X227290Y48937D01*
X227347Y48994D01*
X227406Y49048D01*
X227468Y49100D01*
X227533Y49148D01*
X227600Y49193D01*
X227669Y49235D01*
X227739Y49274D01*
X227812Y49309D01*
X227886Y49341D01*
X227961Y49369D01*
X228038Y49393D01*
X228116Y49414D01*
X228195Y49431D01*
X228274Y49445D01*
X228354Y49454D01*
X228434Y49460D01*
X228515Y49462D01*
X228596Y49460D01*
X228676Y49454D01*
X228756Y49445D01*
X228835Y49431D01*
X228914Y49414D01*
X228992Y49393D01*
X229069Y49369D01*
X229144Y49341D01*
X229218Y49309D01*
X229291Y49274D01*
X229362Y49235D01*
X229430Y49193D01*
X229497Y49148D01*
X229562Y49100D01*
X229624Y49048D01*
X229683Y48994D01*
X229740Y48937D01*
X229794Y48878D01*
X229846Y48816D01*
X229894Y48751D01*
X229939Y48684D01*
X229981Y48616D01*
X230020Y48545D01*
X230055Y48472D01*
X230087Y48398D01*
X230115Y48323D01*
X230139Y48246D01*
X230160Y48168D01*
X230177Y48089D01*
X230191Y48010D01*
X230200Y47930D01*
X230206Y47850D01*
X230208Y47769D01*
X232918Y48107D02*
X232918Y46075D01*
X232918Y48107D02*
X232916Y48179D01*
X232910Y48251D01*
X232901Y48323D01*
X232887Y48393D01*
X232870Y48464D01*
X232849Y48533D01*
X232825Y48600D01*
X232797Y48667D01*
X232765Y48732D01*
X232730Y48795D01*
X232692Y48856D01*
X232651Y48915D01*
X232606Y48972D01*
X232559Y49026D01*
X232508Y49078D01*
X232455Y49127D01*
X232400Y49173D01*
X232342Y49216D01*
X232282Y49256D01*
X232220Y49292D01*
X232156Y49326D01*
X232090Y49355D01*
X232023Y49382D01*
X231954Y49404D01*
X231885Y49423D01*
X231814Y49439D01*
X231743Y49450D01*
X231671Y49458D01*
X231599Y49462D01*
X231527Y49462D01*
X231455Y49458D01*
X231383Y49450D01*
X231312Y49439D01*
X231241Y49423D01*
X231172Y49404D01*
X231103Y49382D01*
X231036Y49355D01*
X230970Y49326D01*
X230906Y49292D01*
X230844Y49256D01*
X230784Y49216D01*
X230726Y49173D01*
X230671Y49127D01*
X230618Y49078D01*
X230567Y49026D01*
X230520Y48972D01*
X230475Y48915D01*
X230434Y48856D01*
X230396Y48795D01*
X230361Y48732D01*
X230329Y48667D01*
X230301Y48600D01*
X230277Y48533D01*
X230256Y48464D01*
X230239Y48393D01*
X230225Y48323D01*
X230216Y48251D01*
X230210Y48179D01*
X230208Y48107D01*
X230209Y48107D02*
X230209Y46753D01*
D10*
X480533Y359258D02*
X480533Y370942D01*
X477287Y370942D01*
X477174Y370940D01*
X477061Y370934D01*
X476948Y370924D01*
X476835Y370910D01*
X476723Y370893D01*
X476612Y370871D01*
X476502Y370846D01*
X476392Y370816D01*
X476284Y370783D01*
X476177Y370746D01*
X476071Y370706D01*
X475967Y370661D01*
X475864Y370613D01*
X475763Y370562D01*
X475664Y370507D01*
X475567Y370449D01*
X475472Y370387D01*
X475379Y370322D01*
X475289Y370254D01*
X475201Y370183D01*
X475115Y370108D01*
X475032Y370031D01*
X474952Y369951D01*
X474875Y369868D01*
X474800Y369782D01*
X474729Y369694D01*
X474661Y369604D01*
X474596Y369511D01*
X474534Y369416D01*
X474476Y369319D01*
X474421Y369220D01*
X474370Y369119D01*
X474322Y369016D01*
X474277Y368912D01*
X474237Y368806D01*
X474200Y368699D01*
X474167Y368591D01*
X474137Y368481D01*
X474112Y368371D01*
X474090Y368260D01*
X474073Y368148D01*
X474059Y368035D01*
X474049Y367922D01*
X474043Y367809D01*
X474041Y367696D01*
X474043Y367583D01*
X474049Y367470D01*
X474059Y367357D01*
X474073Y367244D01*
X474090Y367132D01*
X474112Y367021D01*
X474137Y366911D01*
X474167Y366801D01*
X474200Y366693D01*
X474237Y366586D01*
X474277Y366480D01*
X474322Y366376D01*
X474370Y366273D01*
X474421Y366172D01*
X474476Y366073D01*
X474534Y365976D01*
X474596Y365881D01*
X474661Y365788D01*
X474729Y365698D01*
X474800Y365610D01*
X474875Y365524D01*
X474952Y365441D01*
X475032Y365361D01*
X475115Y365284D01*
X475201Y365209D01*
X475289Y365138D01*
X475379Y365070D01*
X475472Y365005D01*
X475567Y364943D01*
X475664Y364885D01*
X475763Y364830D01*
X475864Y364779D01*
X475967Y364731D01*
X476071Y364686D01*
X476177Y364646D01*
X476284Y364609D01*
X476392Y364576D01*
X476502Y364546D01*
X476612Y364521D01*
X476723Y364499D01*
X476835Y364482D01*
X476948Y364468D01*
X477061Y364458D01*
X477174Y364452D01*
X477287Y364450D01*
X477287Y364451D02*
X480533Y364451D01*
X476638Y364451D02*
X474042Y359258D01*
X468773Y359258D02*
X463580Y359258D01*
X468773Y359258D02*
X468773Y370942D01*
X463580Y370942D01*
X464878Y365749D02*
X468773Y365749D01*
X458867Y370942D02*
X458867Y359258D01*
X453674Y359258D01*
X448961Y359258D02*
X443768Y359258D01*
X448961Y359258D02*
X448961Y370942D01*
X443768Y370942D01*
X445066Y365749D02*
X448961Y365749D01*
X439458Y368346D02*
X436213Y370942D01*
X436213Y359258D01*
X439458Y359258D02*
X432967Y359258D01*
X284582Y50327D02*
X272898Y50327D01*
X284582Y50327D02*
X284582Y53573D01*
X284580Y53686D01*
X284574Y53799D01*
X284564Y53912D01*
X284550Y54025D01*
X284533Y54137D01*
X284511Y54248D01*
X284486Y54358D01*
X284456Y54468D01*
X284423Y54576D01*
X284386Y54683D01*
X284346Y54789D01*
X284301Y54893D01*
X284253Y54996D01*
X284202Y55097D01*
X284147Y55196D01*
X284089Y55293D01*
X284027Y55388D01*
X283962Y55481D01*
X283894Y55571D01*
X283823Y55659D01*
X283748Y55745D01*
X283671Y55828D01*
X283591Y55908D01*
X283508Y55985D01*
X283422Y56060D01*
X283334Y56131D01*
X283244Y56199D01*
X283151Y56264D01*
X283056Y56326D01*
X282959Y56384D01*
X282860Y56439D01*
X282759Y56490D01*
X282656Y56538D01*
X282552Y56583D01*
X282446Y56623D01*
X282339Y56660D01*
X282231Y56693D01*
X282121Y56723D01*
X282011Y56748D01*
X281900Y56770D01*
X281788Y56787D01*
X281675Y56801D01*
X281562Y56811D01*
X281449Y56817D01*
X281336Y56819D01*
X281223Y56817D01*
X281110Y56811D01*
X280997Y56801D01*
X280884Y56787D01*
X280772Y56770D01*
X280661Y56748D01*
X280551Y56723D01*
X280441Y56693D01*
X280333Y56660D01*
X280226Y56623D01*
X280120Y56583D01*
X280016Y56538D01*
X279913Y56490D01*
X279812Y56439D01*
X279713Y56384D01*
X279616Y56326D01*
X279521Y56264D01*
X279428Y56199D01*
X279338Y56131D01*
X279250Y56060D01*
X279164Y55985D01*
X279081Y55908D01*
X279001Y55828D01*
X278924Y55745D01*
X278849Y55659D01*
X278778Y55571D01*
X278710Y55481D01*
X278645Y55388D01*
X278583Y55293D01*
X278525Y55196D01*
X278470Y55097D01*
X278419Y54996D01*
X278371Y54893D01*
X278326Y54789D01*
X278286Y54683D01*
X278249Y54576D01*
X278216Y54468D01*
X278186Y54358D01*
X278161Y54248D01*
X278139Y54137D01*
X278122Y54025D01*
X278108Y53912D01*
X278098Y53799D01*
X278092Y53686D01*
X278090Y53573D01*
X278091Y53573D02*
X278091Y50327D01*
X278091Y54222D02*
X272898Y56818D01*
X272898Y62087D02*
X272898Y67280D01*
X272898Y62087D02*
X284582Y62087D01*
X284582Y67280D01*
X279389Y65982D02*
X279389Y62087D01*
X284582Y71993D02*
X272898Y71993D01*
X272898Y77186D01*
X272898Y81899D02*
X272898Y87092D01*
X272898Y81899D02*
X284582Y81899D01*
X284582Y87092D01*
X279389Y85794D02*
X279389Y81899D01*
X284582Y94972D02*
X284580Y95079D01*
X284574Y95185D01*
X284564Y95291D01*
X284551Y95397D01*
X284533Y95503D01*
X284512Y95607D01*
X284487Y95711D01*
X284458Y95814D01*
X284426Y95915D01*
X284389Y96015D01*
X284349Y96114D01*
X284306Y96212D01*
X284259Y96308D01*
X284208Y96402D01*
X284154Y96494D01*
X284097Y96584D01*
X284037Y96672D01*
X283973Y96757D01*
X283906Y96840D01*
X283836Y96921D01*
X283764Y96999D01*
X283688Y97075D01*
X283610Y97147D01*
X283529Y97217D01*
X283446Y97284D01*
X283361Y97348D01*
X283273Y97408D01*
X283183Y97465D01*
X283091Y97519D01*
X282997Y97570D01*
X282901Y97617D01*
X282803Y97660D01*
X282704Y97700D01*
X282604Y97737D01*
X282503Y97769D01*
X282400Y97798D01*
X282296Y97823D01*
X282192Y97844D01*
X282086Y97862D01*
X281980Y97875D01*
X281874Y97885D01*
X281768Y97891D01*
X281661Y97893D01*
X284582Y94972D02*
X284580Y94851D01*
X284574Y94730D01*
X284564Y94610D01*
X284551Y94489D01*
X284533Y94370D01*
X284512Y94250D01*
X284487Y94132D01*
X284458Y94015D01*
X284425Y93898D01*
X284389Y93783D01*
X284348Y93669D01*
X284305Y93556D01*
X284257Y93444D01*
X284206Y93335D01*
X284151Y93227D01*
X284093Y93120D01*
X284032Y93016D01*
X283967Y92914D01*
X283899Y92814D01*
X283828Y92716D01*
X283754Y92620D01*
X283677Y92527D01*
X283596Y92437D01*
X283513Y92349D01*
X283427Y92264D01*
X283338Y92181D01*
X283247Y92102D01*
X283153Y92025D01*
X283057Y91952D01*
X282959Y91882D01*
X282858Y91815D01*
X282755Y91751D01*
X282650Y91691D01*
X282543Y91634D01*
X282435Y91580D01*
X282325Y91530D01*
X282213Y91484D01*
X282100Y91441D01*
X281985Y91402D01*
X279389Y96919D02*
X279466Y96998D01*
X279547Y97074D01*
X279630Y97147D01*
X279715Y97217D01*
X279803Y97284D01*
X279893Y97348D01*
X279985Y97408D01*
X280080Y97465D01*
X280176Y97519D01*
X280274Y97570D01*
X280374Y97617D01*
X280476Y97661D01*
X280579Y97701D01*
X280683Y97737D01*
X280789Y97769D01*
X280895Y97798D01*
X281003Y97823D01*
X281111Y97845D01*
X281221Y97862D01*
X281330Y97876D01*
X281440Y97885D01*
X281551Y97891D01*
X281661Y97893D01*
X279389Y96919D02*
X272898Y91402D01*
X272898Y97893D01*
X336398Y50327D02*
X348082Y50327D01*
X348082Y53573D01*
X348080Y53686D01*
X348074Y53799D01*
X348064Y53912D01*
X348050Y54025D01*
X348033Y54137D01*
X348011Y54248D01*
X347986Y54358D01*
X347956Y54468D01*
X347923Y54576D01*
X347886Y54683D01*
X347846Y54789D01*
X347801Y54893D01*
X347753Y54996D01*
X347702Y55097D01*
X347647Y55196D01*
X347589Y55293D01*
X347527Y55388D01*
X347462Y55481D01*
X347394Y55571D01*
X347323Y55659D01*
X347248Y55745D01*
X347171Y55828D01*
X347091Y55908D01*
X347008Y55985D01*
X346922Y56060D01*
X346834Y56131D01*
X346744Y56199D01*
X346651Y56264D01*
X346556Y56326D01*
X346459Y56384D01*
X346360Y56439D01*
X346259Y56490D01*
X346156Y56538D01*
X346052Y56583D01*
X345946Y56623D01*
X345839Y56660D01*
X345731Y56693D01*
X345621Y56723D01*
X345511Y56748D01*
X345400Y56770D01*
X345288Y56787D01*
X345175Y56801D01*
X345062Y56811D01*
X344949Y56817D01*
X344836Y56819D01*
X344723Y56817D01*
X344610Y56811D01*
X344497Y56801D01*
X344384Y56787D01*
X344272Y56770D01*
X344161Y56748D01*
X344051Y56723D01*
X343941Y56693D01*
X343833Y56660D01*
X343726Y56623D01*
X343620Y56583D01*
X343516Y56538D01*
X343413Y56490D01*
X343312Y56439D01*
X343213Y56384D01*
X343116Y56326D01*
X343021Y56264D01*
X342928Y56199D01*
X342838Y56131D01*
X342750Y56060D01*
X342664Y55985D01*
X342581Y55908D01*
X342501Y55828D01*
X342424Y55745D01*
X342349Y55659D01*
X342278Y55571D01*
X342210Y55481D01*
X342145Y55388D01*
X342083Y55293D01*
X342025Y55196D01*
X341970Y55097D01*
X341919Y54996D01*
X341871Y54893D01*
X341826Y54789D01*
X341786Y54683D01*
X341749Y54576D01*
X341716Y54468D01*
X341686Y54358D01*
X341661Y54248D01*
X341639Y54137D01*
X341622Y54025D01*
X341608Y53912D01*
X341598Y53799D01*
X341592Y53686D01*
X341590Y53573D01*
X341591Y53573D02*
X341591Y50327D01*
X341591Y54222D02*
X336398Y56818D01*
X336398Y62087D02*
X336398Y67280D01*
X336398Y62087D02*
X348082Y62087D01*
X348082Y67280D01*
X342889Y65982D02*
X342889Y62087D01*
X348082Y71993D02*
X336398Y71993D01*
X336398Y77186D01*
X336398Y81899D02*
X336398Y87092D01*
X336398Y81899D02*
X348082Y81899D01*
X348082Y87092D01*
X342889Y85794D02*
X342889Y81899D01*
X336398Y91402D02*
X336398Y94647D01*
X336400Y94760D01*
X336406Y94873D01*
X336416Y94986D01*
X336430Y95099D01*
X336447Y95211D01*
X336469Y95322D01*
X336494Y95432D01*
X336524Y95542D01*
X336557Y95650D01*
X336594Y95757D01*
X336634Y95863D01*
X336679Y95967D01*
X336727Y96070D01*
X336778Y96171D01*
X336833Y96270D01*
X336891Y96367D01*
X336953Y96462D01*
X337018Y96555D01*
X337086Y96645D01*
X337157Y96733D01*
X337232Y96819D01*
X337309Y96902D01*
X337389Y96982D01*
X337472Y97059D01*
X337558Y97134D01*
X337646Y97205D01*
X337736Y97273D01*
X337829Y97338D01*
X337924Y97400D01*
X338021Y97458D01*
X338120Y97513D01*
X338221Y97564D01*
X338324Y97612D01*
X338428Y97657D01*
X338534Y97697D01*
X338641Y97734D01*
X338749Y97767D01*
X338859Y97797D01*
X338969Y97822D01*
X339080Y97844D01*
X339192Y97861D01*
X339305Y97875D01*
X339418Y97885D01*
X339531Y97891D01*
X339644Y97893D01*
X339757Y97891D01*
X339870Y97885D01*
X339983Y97875D01*
X340096Y97861D01*
X340208Y97844D01*
X340319Y97822D01*
X340429Y97797D01*
X340539Y97767D01*
X340647Y97734D01*
X340754Y97697D01*
X340860Y97657D01*
X340964Y97612D01*
X341067Y97564D01*
X341168Y97513D01*
X341267Y97458D01*
X341364Y97400D01*
X341459Y97338D01*
X341552Y97273D01*
X341642Y97205D01*
X341730Y97134D01*
X341816Y97059D01*
X341899Y96982D01*
X341979Y96902D01*
X342056Y96819D01*
X342131Y96733D01*
X342202Y96645D01*
X342270Y96555D01*
X342335Y96462D01*
X342397Y96367D01*
X342455Y96270D01*
X342510Y96171D01*
X342561Y96070D01*
X342609Y95967D01*
X342654Y95863D01*
X342694Y95757D01*
X342731Y95650D01*
X342764Y95542D01*
X342794Y95432D01*
X342819Y95322D01*
X342841Y95211D01*
X342858Y95099D01*
X342872Y94986D01*
X342882Y94873D01*
X342888Y94760D01*
X342890Y94647D01*
X348082Y95296D02*
X348082Y91402D01*
X348082Y95296D02*
X348080Y95397D01*
X348074Y95497D01*
X348064Y95597D01*
X348051Y95697D01*
X348033Y95796D01*
X348012Y95895D01*
X347987Y95992D01*
X347958Y96089D01*
X347925Y96184D01*
X347889Y96278D01*
X347849Y96370D01*
X347806Y96461D01*
X347759Y96550D01*
X347709Y96637D01*
X347655Y96723D01*
X347598Y96806D01*
X347538Y96886D01*
X347475Y96965D01*
X347408Y97041D01*
X347339Y97114D01*
X347267Y97184D01*
X347193Y97252D01*
X347116Y97317D01*
X347036Y97378D01*
X346954Y97437D01*
X346870Y97492D01*
X346784Y97544D01*
X346696Y97593D01*
X346606Y97638D01*
X346514Y97680D01*
X346421Y97718D01*
X346326Y97752D01*
X346231Y97783D01*
X346134Y97810D01*
X346036Y97833D01*
X345937Y97853D01*
X345837Y97868D01*
X345737Y97880D01*
X345637Y97888D01*
X345536Y97892D01*
X345436Y97892D01*
X345335Y97888D01*
X345235Y97880D01*
X345135Y97868D01*
X345035Y97853D01*
X344936Y97833D01*
X344838Y97810D01*
X344741Y97783D01*
X344646Y97752D01*
X344551Y97718D01*
X344458Y97680D01*
X344366Y97638D01*
X344276Y97593D01*
X344188Y97544D01*
X344102Y97492D01*
X344018Y97437D01*
X343936Y97378D01*
X343856Y97317D01*
X343779Y97252D01*
X343705Y97184D01*
X343633Y97114D01*
X343564Y97041D01*
X343497Y96965D01*
X343434Y96886D01*
X343374Y96806D01*
X343317Y96723D01*
X343263Y96637D01*
X343213Y96550D01*
X343166Y96461D01*
X343123Y96370D01*
X343083Y96278D01*
X343047Y96184D01*
X343014Y96089D01*
X342985Y95992D01*
X342960Y95895D01*
X342939Y95796D01*
X342921Y95697D01*
X342908Y95597D01*
X342898Y95497D01*
X342892Y95397D01*
X342890Y95296D01*
X342889Y95296D02*
X342889Y92700D01*
M02*
